<svg xmlns="http://www.w3.org/2000/svg" xmlns:xlink="http://www.w3.org/1999/xlink" viewBox="0 0 732.2 519.68"><defs><style>.cls-1,.cls-30,.cls-47,.cls-49,.cls-50{fill:none;}.cls-2{isolation:isolate;}.cls-3,.cls-37,.cls-39,.cls-4,.cls-44,.cls-57{opacity:0.3;}.cls-3{fill:url(#Degradado_sin_nombre_15);}.cls-4{fill:url(#Degradado_sin_nombre_15-2);}.cls-5,.cls-6{fill:url(#Degradado_sin_nombre_64);}.cls-11,.cls-40,.cls-6,.cls-66{opacity:0.5;}.cls-11,.cls-12,.cls-14,.cls-21,.cls-23,.cls-37,.cls-39,.cls-40,.cls-43,.cls-44,.cls-53,.cls-57,.cls-6,.cls-60,.cls-61,.cls-63,.cls-65,.cls-66,.cls-7,.cls-9{mix-blend-mode:multiply;}.cls-7{fill:url(#Degradado_sin_nombre_64-3);}.cls-8{fill:url(#Degradado_sin_nombre_64-4);}.cls-9{fill:url(#Degradado_sin_nombre_64-5);}.cls-10,.cls-11{fill:url(#Degradado_sin_nombre_64-6);}.cls-12{fill:url(#Degradado_sin_nombre_64-8);}.cls-13{fill:url(#Degradado_sin_nombre_64-9);}.cls-14{fill:url(#Degradado_sin_nombre_64-10);}.cls-15{fill:#dba6a5;}.cls-16,.cls-40,.cls-53{fill:#259aff;}.cls-17{fill:#00307c;}.cls-18,.cls-37{fill:#137cbc;}.cls-19,.cls-21,.cls-39,.cls-43{fill:#edb6b3;}.cls-20,.cls-32,.cls-57,.cls-65,.cls-66{fill:#003aa5;}.cls-21{opacity:0.7;}.cls-22{clip-path:url(#clip-path);}.cls-24{fill:#3a2719;}.cls-25{clip-path:url(#clip-path-2);}.cls-26{fill:#7f3322;}.cls-27{fill:#fff;}.cls-28{mix-blend-mode:color-burn;}.cls-29{fill:#153158;}.cls-30{stroke:#153158;}.cls-30,.cls-49,.cls-50{stroke-linecap:round;stroke-linejoin:round;}.cls-30,.cls-50{stroke-width:2px;}.cls-31,.cls-48{fill:#ededeb;}.cls-32{stroke:#003aa5;stroke-width:0.25px;}.cls-32,.cls-47{stroke-miterlimit:10;}.cls-33{fill:url(#Degradado_sin_nombre_64-11);}.cls-34{clip-path:url(#clip-path-3);}.cls-35{clip-path:url(#clip-path-4);}.cls-36{fill:#fdda42;}.cls-38{clip-path:url(#clip-path-5);}.cls-41{fill:#e2abaa;}.cls-42{clip-path:url(#clip-path-6);}.cls-43{opacity:0.25;}.cls-45{clip-path:url(#clip-path-7);}.cls-46{clip-path:url(#clip-path-8);}.cls-47,.cls-49,.cls-50{stroke:#ededeb;}.cls-47,.cls-49{stroke-width:1.2px;}.cls-48,.cls-53{opacity:0.4;}.cls-51{clip-path:url(#clip-path-9);}.cls-52{clip-path:url(#clip-path-10);}.cls-54{fill:url(#Degradado_sin_nombre_64-12);}.cls-55{clip-path:url(#clip-path-11);}.cls-56{clip-path:url(#clip-path-12);}.cls-58,.cls-60{fill:url(#Degradado_sin_nombre_64-13);}.cls-59,.cls-61{fill:url(#Degradado_sin_nombre_64-14);}.cls-62,.cls-63{fill:url(#Degradado_sin_nombre_64-17);}.cls-64{fill:#4baafc;}</style><linearGradient id="Degradado_sin_nombre_15" x1="346.81" y1="513.78" x2="1050.99" y2="513.78" gradientUnits="userSpaceOnUse"><stop offset="0" stop-color="#c2e1fe"/><stop offset="1" stop-color="#259aff" stop-opacity="0"/></linearGradient><linearGradient id="Degradado_sin_nombre_15-2" x1="854.28" y1="503.84" x2="1586.48" y2="503.84" gradientTransform="matrix(-1, 0, 0, 1, 1919.28, 0)" xlink:href="#Degradado_sin_nombre_15"/><linearGradient id="Degradado_sin_nombre_64" x1="554.02" y1="591.64" x2="700.41" y2="791.28" gradientTransform="translate(263.72 -345.24) rotate(23.17)" gradientUnits="userSpaceOnUse"><stop offset="0" stop-color="#fdda42"/><stop offset="1" stop-color="#e5a003"/></linearGradient><linearGradient id="Degradado_sin_nombre_64-3" x1="630.06" y1="789.7" x2="630.06" y2="624.9" xlink:href="#Degradado_sin_nombre_64"/><linearGradient id="Degradado_sin_nombre_64-4" x1="423.56" y1="487.82" x2="611.92" y2="744.68" gradientTransform="matrix(1, 0, 0, 1, 0, 0)" xlink:href="#Degradado_sin_nombre_64"/><linearGradient id="Degradado_sin_nombre_64-5" x1="515.95" y1="741.47" x2="515.95" y2="532.35" gradientTransform="matrix(1, 0, 0, 1, 0, 0)" xlink:href="#Degradado_sin_nombre_64"/><linearGradient id="Degradado_sin_nombre_64-6" x1="1213.4" y1="309.5" x2="1359.8" y2="509.14" gradientTransform="matrix(-0.92, 0.39, 0.39, 0.92, 1869.66, -345.24)" xlink:href="#Degradado_sin_nombre_64"/><linearGradient id="Degradado_sin_nombre_64-8" x1="1289.44" y1="507.55" x2="1289.44" y2="342.76" gradientTransform="matrix(-0.92, 0.39, 0.39, 0.92, 1869.66, -345.24)" xlink:href="#Degradado_sin_nombre_64"/><linearGradient id="Degradado_sin_nombre_64-9" x1="1140.79" y1="492.67" x2="1329.15" y2="749.52" gradientTransform="matrix(-1, 0, 0, 1, 2133.38, 0)" xlink:href="#Degradado_sin_nombre_64"/><linearGradient id="Degradado_sin_nombre_64-10" x1="1233.18" y1="746.31" x2="1233.18" y2="537.19" gradientTransform="matrix(-1, 0, 0, 1, 2133.38, 0)" xlink:href="#Degradado_sin_nombre_64"/><clipPath id="clip-path" transform="translate(-332.8 -244)"><path class="cls-1" d="M647.59,459.49h19.3a1.72,1.72,0,0,1,1.72,1.72v37.67a4.14,4.14,0,0,1-4.14,4.14H650a4.14,4.14,0,0,1-4.14-4.14V461.21A1.72,1.72,0,0,1,647.59,459.49Z"/></clipPath><clipPath id="clip-path-2" transform="translate(-332.8 -244)"><path class="cls-1" d="M672.83,450.53c-.62-1.8-2.89-1.32-6.89.68-4.35,2.17-12,2.69-17.45.42-4.13-1.72-6.19-1.89-6.92-.34s3.84,10.68,12.54,11.79a23.94,23.94,0,0,0,6.73-.16C669.49,461.46,673.52,452.52,672.83,450.53Z"/></clipPath><linearGradient id="Degradado_sin_nombre_64-11" x1="437.86" y1="214.28" x2="412.08" y2="214.28" gradientTransform="matrix(1, 0, 0, 1, 0, 0)" xlink:href="#Degradado_sin_nombre_64"/><clipPath id="clip-path-3" transform="translate(-332.8 -244)"><path class="cls-1" d="M748.16,438.42h19.3a1.72,1.72,0,0,1,1.72,1.72v37.67a4.14,4.14,0,0,1-4.14,4.14H750.58a4.14,4.14,0,0,1-4.14-4.14V440.14A1.72,1.72,0,0,1,748.16,438.42Z"/></clipPath><clipPath id="clip-path-4" transform="translate(-332.8 -244)"><path class="cls-1" d="M776.34,429.46c-.74-1.8-3.43-1.32-8.19.68-5.16,2.17-14.24,2.69-20.72.42-4.9-1.72-7.34-1.89-8.21-.34s4.57,10.69,14.89,11.79a33.69,33.69,0,0,0,8-.16C772.37,440.39,777.15,431.45,776.34,429.46Z"/></clipPath><clipPath id="clip-path-5" transform="translate(-332.8 -244)"><path class="cls-1" d="M452.5,632s-4.17,24.28-2.54,26.8S478.7,668,497.06,664s40.35-13.27,40.35-13.27l-45.47-11.14-19.57,1.67S458.52,637.64,452.5,632Z"/></clipPath><clipPath id="clip-path-6" transform="translate(-332.8 -244)"><path class="cls-1" d="M591.58,636.76s2.29,12,2.29,16.83-9.49,10.12-14,10.4S483,644.29,478,643.91a71,71,0,0,1-9.26-1.36s4.52-8,12.87-10.52,17.84,1.48,23.49,2.72,35.9,5.08,51.71,4.83A348.42,348.42,0,0,0,591.58,636.76Z"/></clipPath><clipPath id="clip-path-7" transform="translate(-332.8 -244)"><path class="cls-1" d="M513,556.68h18.11a1.72,1.72,0,0,1,1.72,1.72v35.39a4.14,4.14,0,0,1-4.14,4.14H515.4a4.14,4.14,0,0,1-4.14-4.14V558.4A1.72,1.72,0,0,1,513,556.68Z"/></clipPath><clipPath id="clip-path-8" transform="translate(-332.8 -244)"><path class="cls-1" d="M539.38,548.19c-.65-1.71-3-1.25-7.23.64-4.55,2.06-12.58,2.56-18.3.4-4.33-1.63-6.48-1.79-7.26-.32s4,10.13,13.16,11.17a27.58,27.58,0,0,0,7.06-.15C535.88,558.55,540.1,550.08,539.38,548.19Z"/></clipPath><clipPath id="clip-path-9" transform="translate(-332.8 -244)"><path class="cls-1" d="M672.44,583.81h17.47a1.72,1.72,0,0,1,1.72,1.72v34.16a4.14,4.14,0,0,1-4.14,4.14H674.86a4.14,4.14,0,0,1-4.14-4.14V585.53A1.72,1.72,0,0,1,672.44,583.81Z"/></clipPath><clipPath id="clip-path-10" transform="translate(-332.8 -244)"><path class="cls-1" d="M696.47,575.57c-.57-1.66-2.66-1.21-6.34.63a21.67,21.67,0,0,1-16,.38c-3.8-1.58-5.68-1.74-6.36-.31s3.54,9.82,11.53,10.84a22,22,0,0,0,6.19-.15C693.39,585.62,697.1,577.4,696.47,575.57Z"/></clipPath><linearGradient id="Degradado_sin_nombre_64-12" x1="678.59" y1="735.02" x2="678.59" y2="652.48" gradientTransform="matrix(1, 0, 0, 1, 0, 0)" xlink:href="#Degradado_sin_nombre_64"/><clipPath id="clip-path-11" transform="translate(-332.8 -244)"><path class="cls-1" d="M877.83,588.18l-9.11-.76c-3.13-.26-5.44-.24-5.16-3.14l1.69-17.43a2.31,2.31,0,0,1,2.56-2l15.74,1.31a2.25,2.25,0,0,1,2.14,2.38L884,583.39A5.59,5.59,0,0,1,877.83,588.18Z"/></clipPath><clipPath id="clip-path-12" transform="translate(-332.8 -244)"><path class="cls-1" d="M852,559.1c.64-1.5,2.3-.91,5.11,1.12A15.69,15.69,0,0,0,870.19,562c3.27-1.15,4.83-1.14,5.23.25s-3.92,8.87-10.56,9.13a15.76,15.76,0,0,1-5-.67C853.46,568.74,851.3,560.75,852,559.1Z"/></clipPath><linearGradient id="Degradado_sin_nombre_64-13" x1="774.73" y1="679.82" x2="795.89" y2="679.82" gradientTransform="matrix(1, 0, 0, 1, 0, 0)" xlink:href="#Degradado_sin_nombre_64"/><linearGradient id="Degradado_sin_nombre_64-14" x1="1382.66" y1="696.7" x2="1403.83" y2="696.7" gradientTransform="matrix(-1, 0, 0, 1, 2198.65, 0)" xlink:href="#Degradado_sin_nombre_64"/><linearGradient id="Degradado_sin_nombre_64-17" x1="797.06" y1="732.37" x2="797.06" y2="646.87" gradientTransform="matrix(1, 0, 0, 1, 0, 0)" xlink:href="#Degradado_sin_nombre_64"/></defs><title>about</title><g class="cls-2"><g id="Layer_1" data-name="Layer 1"><path class="cls-3" d="M375.65,714.34a66,66,0,0,1-26.95-43.9c-8.32-58.19,6.19-187.73,138.16-296.16C647,242.7,814.29,251.77,895.29,284.81c89.25,36.39,145.9,158.38,155.07,267,6.9,81.75-43.38,152.05-128.44,174.21C779.23,763.2,483.12,792.5,375.65,714.34Z" transform="translate(-332.8 -244)"/><path class="cls-4" d="M1035,712.37a68.61,68.61,0,0,0,28-45.64c8.65-60.51-6.43-195.2-143.65-307.94C752.85,222,578.92,231.4,494.7,265.75,401.89,303.6,343,430.44,333.46,543.38c-7.18,85,45.1,158.1,133.55,181.15C615.38,763.18,923.27,793.65,1035,712.37Z" transform="translate(-332.8 -244)"/><path class="cls-5" d="M637.75,605.09c2.46-13.82-1.94-28.65-13.28-38.23-6.75-5.71-19-8.64-21.14-17.88-1.82-8,3.16-15.83,4.36-23.59,2.12-13.72-3.38-28.19-14.15-37.76-7.32-6.51-17.87-9.68-23.73-17.62-5.41-7.33-6.21-16.58-8-25.05-2.66-12.21-11.76-29.73-28.35-26.1-14,3.06-18.75,19-19,30.61a54.43,54.43,0,0,0,1.17,12.33c1,4.69,3.17,9.15,3.88,13.88.76,5,1,10.83-.45,15.71-1.36,4.41-3.67,8.53-5,13-4.9,16.29-.2,33.7,8.41,48.22,5.73,9.66,9.88,17.57,8.57,28.91-1,8.8-3.66,17.49-2.94,26.41,1.41,17.57,15.31,31.09,32,38a1.88,1.88,0,0,0,1.38,0C593.7,655.06,630.77,636.29,637.75,605.09Z" transform="translate(-332.8 -244)"/><path class="cls-6" d="M637.75,605.09c2.46-13.82-1.94-28.65-13.28-38.23-6.75-5.71-19-8.64-21.14-17.88-1.82-8,3.16-15.83,4.36-23.59,2.12-13.72-3.38-28.19-14.15-37.76-7.32-6.51-17.87-9.68-23.73-17.62-5.41-7.33-6.21-16.58-8-25.05-2.66-12.21-11.76-29.73-28.35-26.1-14,3.06-18.75,19-19,30.61a54.43,54.43,0,0,0,1.17,12.33c1,4.69,3.17,9.15,3.88,13.88.76,5,1,10.83-.45,15.71-1.36,4.41-3.67,8.53-5,13-4.9,16.29-.2,33.7,8.41,48.22,5.73,9.66,9.88,17.57,8.57,28.91-1,8.8-3.66,17.49-2.94,26.41,1.41,17.57,15.31,31.09,32,38a1.88,1.88,0,0,0,1.38,0C593.7,655.06,630.77,636.29,637.75,605.09Z" transform="translate(-332.8 -244)"/><path class="cls-7" d="M598.16,665.62q-7.42-26.11-14.77-52.24l0,0a166.63,166.63,0,0,0,18.27-45.57c.49-2.08-3.05-2.52-3.54-.45A162.73,162.73,0,0,1,582,608.63q-6.22-22.14-12.39-44.29a1.61,1.61,0,0,0,.32-.4,196,196,0,0,0,19.48-46.89c.55-2.06-3-2.5-3.54-.44a191.83,191.83,0,0,1-17.57,43.06q-5.79-20.76-11.52-41.52a211,211,0,0,0,13.31-33.23c.62-2-2.66-3.35-3.28-1.3A209.7,209.7,0,0,1,555.4,513q-5.71-20.68-11.39-41.38a1.71,1.71,0,0,0,.44-.54q5.59-10.39,10.14-21.21c.83-2-2.45-3.3-3.28-1.31q-3.91,9.31-8.61,18.29-3.8-13.86-7.6-27.73c-.56-2-4.11-1.65-3.54.42q5.22,19.14,10.49,38.29-7.83-7.65-16.21-14.81a1.71,1.71,0,0,0-2.22,2.59q10.56,9,20.24,18.8,4.64,16.86,9.3,33.7a1.36,1.36,0,0,0,.1.36l5.22,18.84A203.44,203.44,0,0,1,523,508.94c-1.55-1.56-4.35.51-2.79,2.07a207.28,207.28,0,0,0,39.62,31.17q6.67,24,13.4,48L542,571.32c-1.91-1.16-4.15,1.43-2.23,2.59l34.8,21q10.1,36,20.29,71.92C595.43,668.91,598.73,667.66,598.16,665.62Z" transform="translate(-332.8 -244)"/><path class="cls-8" d="M415.26,554.32c3.64,5,8.53,9.13,11.88,14.25,3.54,5.44,7,12,7.84,18.37.78,5.72.31,11.55,1.13,17.29,3,21.08,17.72,39,35.41,51.87,11.77,8.53,20.79,15.78,25.32,29.48,3.51,10.64,5.09,21.9,10.67,31.88,6.41,11.45,17,19.34,29.22,24h49c32.24-12,54.27-44.62,47.07-77.6a54.72,54.72,0,0,0-35.72-38.1c-10.84-3.49-26.61-1.25-34-11-6.33-8.36-4.78-19.74-7.53-29.26-4.86-16.84-18.92-31-36.47-37.16-11.94-4.16-25.81-3-36.82-9.47-10.16-6-16-16.31-22.66-25.26-9.57-12.89-29.43-29-46.67-17.16-14.6,10-11.54,30.62-5.64,44.1A71.28,71.28,0,0,0,415.26,554.32Z" transform="translate(-332.8 -244)"/><path class="cls-9" d="M454.41,560.74q-13.14-5.24-26.63-9.67c-2.73-.89-3.91,3.13-1.19,4q17,5.55,33.41,12.45,14.34,17.34,28.71,34.68a1.79,1.79,0,0,0,.31.36q8,9.69,16.07,19.38a274,274,0,0,1-56.16-16.54c-2.62-1.09-4.76,2.58-2.12,3.68a280.52,280.52,0,0,0,62.41,17.84q20.5,24.69,41.07,49.33l-46.17-7.47c-2.82-.45-4,3.56-1.19,4l51.42,8.32q25.2,30.21,50.5,60.34h5.63q-18.06-21.53-36.08-43.07s0,0,0-.07a203.16,203.16,0,0,0-3.17-61.05c-.54-2.64-4.87-1.52-4.33,1.1a199.15,199.15,0,0,1,3.4,55.15q-19-22.72-37.92-45.5a2.37,2.37,0,0,0,.15-.61,238.58,238.58,0,0,0-2.47-63.14c-.46-2.64-4.79-1.52-4.33,1.11a234.06,234.06,0,0,1,2.64,57.84q-17.75-21.35-35.44-42.71A257.91,257.91,0,0,0,490.62,556c-.37-2.62-4.86-2.66-4.49,0a258,258,0,0,1,2.45,39.26q-17.64-21.28-35.22-42.6a2.12,2.12,0,0,0,.23-.82q.9-14.6.4-29.18c-.09-2.67-4.58-2.68-4.49,0q.44,12.55-.2,25.09-11.78-14.28-23.56-28.56c-1.73-2.1-5.63,0-3.88,2.1Q438.11,541,454.41,560.74Z" transform="translate(-332.8 -244)"/><path class="cls-10" d="M778.4,605.09c-2.46-13.82,1.94-28.65,13.28-38.23,6.75-5.71,19-8.64,21.15-17.88,1.81-8-3.16-15.83-4.36-23.59-2.13-13.72,3.37-28.19,14.14-37.76,7.32-6.51,17.87-9.68,23.73-17.62,5.42-7.33,6.21-16.58,8-25.05,2.66-12.21,11.76-29.73,28.35-26.1,14,3.06,18.76,19,19,30.61a54.43,54.43,0,0,1-1.17,12.33c-1,4.69-3.17,9.15-3.88,13.88-.76,5-1,10.83.46,15.71,1.35,4.41,3.67,8.53,5,13,4.91,16.29.21,33.7-8.41,48.22-5.73,9.66-9.88,17.57-8.57,28.91,1,8.8,3.66,17.49,2.94,26.41-1.41,17.57-15.3,31.09-32,38a1.88,1.88,0,0,1-1.38,0C822.45,655.06,785.38,636.29,778.4,605.09Z" transform="translate(-332.8 -244)"/><path class="cls-11" d="M778.4,605.09c-2.46-13.82,1.94-28.65,13.28-38.23,6.75-5.71,19-8.64,21.15-17.88,1.81-8-3.16-15.83-4.36-23.59-2.13-13.72,3.37-28.19,14.14-37.76,7.32-6.51,17.87-9.68,23.73-17.62,5.42-7.33,6.21-16.58,8-25.05,2.66-12.21,11.76-29.73,28.35-26.1,14,3.06,18.76,19,19,30.61a54.43,54.43,0,0,1-1.17,12.33c-1,4.69-3.17,9.15-3.88,13.88-.76,5-1,10.83.46,15.71,1.35,4.41,3.67,8.53,5,13,4.91,16.29.21,33.7-8.41,48.22-5.73,9.66-9.88,17.57-8.57,28.91,1,8.8,3.66,17.49,2.94,26.41-1.41,17.57-15.3,31.09-32,38a1.88,1.88,0,0,1-1.38,0C822.45,655.06,785.38,636.29,778.4,605.09Z" transform="translate(-332.8 -244)"/><path class="cls-12" d="M818,665.62q7.41-26.11,14.77-52.24l0,0a166.63,166.63,0,0,1-18.27-45.57c-.49-2.08,3-2.52,3.54-.45a162.73,162.73,0,0,0,16.11,41.32q6.23-22.14,12.39-44.29a1.61,1.61,0,0,1-.32-.4,195.52,195.52,0,0,1-19.47-46.89c-.56-2.06,3-2.5,3.53-.44a191.83,191.83,0,0,0,17.57,43.06q5.79-20.76,11.52-41.52A212,212,0,0,1,846,484.92c-.62-2,2.66-3.35,3.28-1.3A210.94,210.94,0,0,0,860.75,513q5.71-20.68,11.39-41.38a1.71,1.71,0,0,1-.44-.54q-5.6-10.39-10.14-21.21c-.83-2,2.45-3.3,3.29-1.31q3.92,9.31,8.6,18.29,3.79-13.86,7.6-27.73c.56-2,4.11-1.65,3.55.42q-5.24,19.14-10.5,38.29,7.83-7.65,16.21-14.81a1.71,1.71,0,0,1,2.22,2.59q-10.56,9-20.24,18.8-4.63,16.86-9.3,33.7a1.36,1.36,0,0,1-.1.36q-2.61,9.42-5.22,18.84a203.44,203.44,0,0,0,35.49-28.41c1.55-1.56,4.35.51,2.79,2.07a207.28,207.28,0,0,1-39.62,31.17q-6.68,24-13.4,48l31.24-18.87c1.91-1.16,4.15,1.43,2.23,2.59l-34.8,21q-10.1,36-20.29,71.92C820.72,668.91,817.42,667.66,818,665.62Z" transform="translate(-332.8 -244)"/><path class="cls-13" d="M1000.9,559.16c-3.65,5-8.54,9.13-11.89,14.26-3.54,5.43-7,12-7.84,18.37-.78,5.72-.31,11.54-1.12,17.28-3,21.08-17.73,39-35.42,51.87-11.77,8.54-20.79,15.78-25.31,29.48-3.52,10.64-5.1,21.9-10.68,31.88-6.4,11.45-17,19.35-29.22,24h-49c-32.24-12-54.27-44.62-47.07-77.6a54.72,54.72,0,0,1,35.72-38.1c10.84-3.49,26.61-1.24,34-11,6.33-8.36,4.78-19.75,7.53-29.27,4.86-16.83,18.92-31,36.47-37.16,11.94-4.16,25.81-3,36.82-9.47,10.16-6,16-16.31,22.66-25.26,9.58-12.88,29.43-29,46.68-17.15,14.59,10,11.53,30.61,5.63,44.09A71.46,71.46,0,0,1,1000.9,559.16Z" transform="translate(-332.8 -244)"/><path class="cls-14" d="M961.75,565.59q13.13-5.25,26.62-9.68c2.73-.89,3.91,3.13,1.2,4q-17,5.55-33.42,12.44-14.34,17.36-28.71,34.68a1.79,1.79,0,0,1-.3.36q-8,9.71-16.08,19.38a274.63,274.63,0,0,0,56.16-16.53c2.62-1.1,4.76,2.57,2.12,3.67a280.59,280.59,0,0,1-62.4,17.84q-20.52,24.69-41.08,49.34L912,673.64c2.82-.46,4,3.55,1.19,4L861.8,686q-25.2,30.21-50.5,60.34h-5.63q18.06-21.51,36.08-43.06s0,0,0-.08a203.5,203.5,0,0,1,3.17-61c.54-2.63,4.87-1.52,4.33,1.11a199.1,199.1,0,0,0-3.4,55.14q19-22.73,37.92-45.5a2.18,2.18,0,0,1-.15-.61,238.18,238.18,0,0,1,2.48-63.14c.45-2.64,4.78-1.52,4.32,1.11a234.06,234.06,0,0,0-2.64,57.84q17.75-21.33,35.45-42.71a256.91,256.91,0,0,1,2.31-44.51c.37-2.62,4.86-2.65,4.49,0a258.12,258.12,0,0,0-2.45,39.26q17.64-21.29,35.22-42.59a2,2,0,0,1-.22-.83q-.92-14.58-.41-29.18c.09-2.67,4.58-2.68,4.49,0q-.43,12.56.2,25.09,11.77-14.28,23.56-28.56c1.73-2.1,5.63,0,3.88,2.1Q978,545.88,961.75,565.59Z" transform="translate(-332.8 -244)"/><polygon class="cls-15" points="290.24 237.28 297.28 239.2 305.95 243.26 296.82 239.79 290.24 237.28"/><path class="cls-16" d="M677,487.59l8.39-7.65s41.26-10.93,67.19-16.33,29.22-.85,29.22-.85L793.51,482S734,498.26,729.08,497.84s-31.47,10.62-31.47,10.62Z" transform="translate(-332.8 -244)"/><polygon class="cls-17" points="420.19 500.7 424.14 378.48 427.61 378.48 431.97 500.7 465.4 500.7 474.58 335.03 376.3 322.54 376.3 364.32 385.73 500.7 420.19 500.7"/><polygon class="cls-17" points="285.8 500.7 320.09 500.7 324.09 376.73 327.56 376.73 331.99 500.7 365.07 500.7 371.89 363.36 366.44 328.68 286.99 310.25 276.25 362.57 277.31 377.82 285.8 500.7"/><polygon class="cls-18" points="477.91 357.56 372.03 357.56 377.71 218.03 424.97 211.27 476.02 218.03 466.22 250.56 477.91 357.56"/><path class="cls-19" d="M691.36,422.72s15.39-7.61,17.56,3.26-4.85,21.59-17.4,15.69S691.36,422.72,691.36,422.72Z" transform="translate(-332.8 -244)"/><path class="cls-20" d="M700,439.6a1.27,1.27,0,1,0,1.27-1.17A1.23,1.23,0,0,0,700,439.6Z" transform="translate(-332.8 -244)"/><path class="cls-21" d="M695.93,431.57c1-3.54,2.27-5.57,3.77-6.2a6.46,6.46,0,0,1,7.89,2.58.66.66,0,0,1-.25.93.77.77,0,0,1-1-.23,5.72,5.72,0,0,0-3.71-2.41c2.24,2.14,4.63,6.08,1.51,9.67a.75.75,0,0,1-.57.25.74.74,0,0,1-.45-.15.63.63,0,0,1-.11-.94c3.53-4.07-2-8.38-2.2-8.56,0,0,0-.05-.06-.07l-.45.16c-.48.2-1.74,1.13-3,5.32a.71.71,0,0,1-.7.5l-.19,0A.67.67,0,0,1,695.93,431.57Z" transform="translate(-332.8 -244)"/><path class="cls-18" d="M746.44,456.73l-50.64,6.51L622,482.41l14.37,21.34,55.2-9.33s52.78,5.2,57,4.53L744,495.16Z" transform="translate(-332.8 -244)"/><path class="cls-19" d="M623.05,422.72s-15.4-7.61-17.57,3.26,4.85,21.59,17.4,15.69S623.05,422.72,623.05,422.72Z" transform="translate(-332.8 -244)"/><path class="cls-20" d="M614.4,439.6a1.27,1.27,0,0,1-2.53,0,1.27,1.27,0,0,1,2.53,0Z" transform="translate(-332.8 -244)"/><path class="cls-21" d="M618.47,431.57c-1-3.54-2.27-5.57-3.77-6.2a6.45,6.45,0,0,0-7.88,2.58.65.65,0,0,0,.25.93.75.75,0,0,0,1-.23,5.75,5.75,0,0,1,3.71-2.41c-2.24,2.14-4.62,6.08-1.51,9.67a.75.75,0,0,0,.57.25.79.79,0,0,0,.46-.15.64.64,0,0,0,.11-.94c-3.54-4.07,2-8.38,2.2-8.56l0-.07.45.16c.49.2,1.74,1.13,3,5.32a.72.72,0,0,0,.7.5l.19,0A.67.67,0,0,0,618.47,431.57Z" transform="translate(-332.8 -244)"/><path class="cls-19" d="M657.24,459.49c-6.28,0-11.38,4.33-11.38,9.68v42.75l-.07,0v-.17c0,5.82,5.08,10.54,11.35,10.54h0c6.27,0,11.35-4.72,11.35-10.54v-32.1h.12V469.17C668.61,463.82,663.52,459.49,657.24,459.49Z" transform="translate(-332.8 -244)"/><g class="cls-22"><g class="cls-23"><path class="cls-19" d="M709.4,382.42H607.59s-4.46,54.83,2.42,69.34c3.74,7.89,16.23,15.93,28,22.66a42.53,42.53,0,0,0,41.48-.13c11.57-6.71,23.71-14.68,27.43-22.53C713.85,437.25,709.4,382.42,709.4,382.42Z" transform="translate(-332.8 -244)"/></g></g><path class="cls-19" d="M698.82,409.23c-.33-10.25-9.39-18.39-20.43-18.39h-42c-11.26,0-20.49,8.3-20.82,18.74-.45,14.85,1.6,34.29,4.82,41.7,3,6.88,11,13.88,20.48,19.75a31.52,31.52,0,0,0,33.15-.12c9.25-5.84,17-12.79,20-19.63C697.26,443.82,699.29,424.12,698.82,409.23Z" transform="translate(-332.8 -244)"/><path class="cls-24" d="M694.5,377.14" transform="translate(-332.8 -244)"/><g class="cls-25"><path class="cls-26" d="M672.83,450.53c-.62-1.8-2.89-1.32-6.89.68-4.35,2.17-12,2.69-17.45.42-4.13-1.72-6.19-1.89-6.92-.34s3.84,10.68,12.54,11.79a23.94,23.94,0,0,0,6.73-.16C669.49,461.46,673.52,452.52,672.83,450.53Z" transform="translate(-332.8 -244)"/><path class="cls-27" d="M645.32,449.3s.14,6.36,10.91,6.55,13.94-2.91,14-7.3Z" transform="translate(-332.8 -244)"/><path class="cls-19" d="M649.29,461.93s7.41-4.88,18.87-.31l-8.85,6.27Z" transform="translate(-332.8 -244)"/><g class="cls-28"><path class="cls-19" d="M649.29,461.93s7.41-4.88,18.87-.31l-8.85,6.27Z" transform="translate(-332.8 -244)"/></g></g><g class="cls-23"><path class="cls-19" d="M649.4,434.94s-.1.43-.29,1.17c-.09.37-.19.83-.27,1.35a4.76,4.76,0,0,0,0,1.64c.08.34.86.81,1.46,1.19a24.18,24.18,0,0,0,2.16,1.1,11.21,11.21,0,0,0,4.92,1.13,9.35,9.35,0,0,0,1.3-.17c.43-.09.85-.2,1.27-.33a20.54,20.54,0,0,0,4.53-2.06,5.4,5.4,0,0,0,.84-.63c.13-.13.2-.18.23-.3a1.16,1.16,0,0,0,.09-.4,16.59,16.59,0,0,0-.08-3.11c-.07-.76-.12-1.19-.12-1.19s.15.41.37,1.15c.09.38.2.84.33,1.36a9.19,9.19,0,0,1,.25,1.83,2.3,2.3,0,0,1-.07.58,1.33,1.33,0,0,1-.34.59,6.42,6.42,0,0,1-.89.84,15.21,15.21,0,0,1-2.13,1.43,17.4,17.4,0,0,1-2.55,1.13c-.46.15-.93.29-1.42.4a12.23,12.23,0,0,1-1.48.21,11,11,0,0,1-5.64-1.42,13.65,13.65,0,0,1-2.17-1.38,9.64,9.64,0,0,1-.91-.76,4.21,4.21,0,0,1-.42-.43,1.29,1.29,0,0,1-.29-.61,4.39,4.39,0,0,1,.3-1.89c.17-.52.35-1,.5-1.32C649.18,435.33,649.4,434.94,649.4,434.94Z" transform="translate(-332.8 -244)"/></g><path class="cls-24" d="M625,446.1" transform="translate(-332.8 -244)"/><path class="cls-24" d="M625,446.19a.09.09,0,1,0,0-.18.09.09,0,1,0,0,.18Z" transform="translate(-332.8 -244)"/><path class="cls-29" d="M641.62,424.25a4.24,4.24,0,1,1-4.22-3.92A4.08,4.08,0,0,1,641.62,424.25Z" transform="translate(-332.8 -244)"/><path class="cls-29" d="M681.23,424.25a4.23,4.23,0,1,1-4.22-3.92A4.08,4.08,0,0,1,681.23,424.25Z" transform="translate(-332.8 -244)"/><path class="cls-30" d="M626.39,416.11a21.92,21.92,0,0,1,12.67-7.36" transform="translate(-332.8 -244)"/><path class="cls-30" d="M688,416.11a22,22,0,0,0-12.67-7.36" transform="translate(-332.8 -244)"/><path class="cls-20" d="M695.79,395.33c-5.8,4.56-13.17,7-20.42,9.09-13.61,3.94-28,7.07-42,5-7.79-1.13-15.42-3.91-21.43-8.65s-10.31-11.53-11-18.82c.23,2.64,4,3.39,6.84,3.3,23-.72,46-8.86,68.62-5,8.1,1.39,14.76,5.06,18.16,12" transform="translate(-332.8 -244)"/><path class="cls-20" d="M695.11,394.17c-7.22,5.49-14.88,8-23.58,10.27-9.17,2.39-18.55,4.3-28.06,4.35-17,.07-38.66-7.37-41.17-26.81l-2.78.38c1.81,6.16,11,4.27,15.66,3.83,8.86-.83,17.61-2.46,26.4-3.74,15.88-2.31,42.64-6.66,52,10.42.64,1.15,2.35.13,1.76-1-6.79-13.37-23.26-14.3-36.55-13.74-8.83.37-17.57,1.8-26.3,3.11-5.15.77-10.3,1.54-15.48,2.05-2.92.29-13.57,2.51-14.8-1.66-.43-1.46-3-1.26-2.78.38,2.34,18.1,19.9,27.62,36.62,29.14,10.59,1,21.28-.8,31.5-3.48,9.59-2.51,20.73-5.23,28.88-11.15,1.4-1,0-3.37-1.36-2.32Z" transform="translate(-332.8 -244)"/><path class="cls-20" d="M622.17,403.52a1.3,1.3,0,0,0-1.83-.69,8.15,8.15,0,0,0-3.6,5,57.38,57.38,0,0,1,.83-7.4c.83-2.68-3.89-3.81-4.43-1.14a41.11,41.11,0,0,0,1.3,21.8,1.59,1.59,0,0,0,3.07-.34C619.68,410.09,623.09,406,622.17,403.52Z" transform="translate(-332.8 -244)"/><path class="cls-20" d="M687,397.65c1.15,8.37,11,14.25,11.29,22.68,1.65-4.45,3.31-9,3.61-13.68s-.93-9.69-4.41-13.12" transform="translate(-332.8 -244)"/><path class="cls-20" d="M685.82,397.65c.39,4,2.76,7.11,5.09,10.24,3.07,4.11,5.44,7.63,6.9,12.59.14.47.92.54,1,0,.68-3.51,2.85-6.56,3.67-10.05a23.79,23.79,0,0,0,.55-7.33c-.33-3.85-1.57-8.3-5.06-10.38a1,1,0,0,0-1.29,1.28c2.34,4.93,4.48,8.49,3.9,14.25-.27,2.63-.9,5.14-1.31,7.74-.49,3.15.17,3.75-.9.49-2.29-7-8.13-11.91-10.21-19.15-.36-1.25-2.5-1.07-2.37.32Z" transform="translate(-332.8 -244)"/><path class="cls-20" d="M680,367.44c-9-1.71-18.52-.53-27.35,1.32-6.23,1.3-12.3,3.13-18.35,5-8.79,2.76-14.31,1.19-21.13-5a3.06,3.06,0,0,0-4.52.54,16.52,16.52,0,0,0-2.93,13.35c-3-2-6-4-8.91-6.05a2.31,2.31,0,0,0-3.3,1.24c-1.53,9-2.51,18.54,4,26.09,6,6.89,15.95,9.73,25,11,25.67,3.62,49.61-6.89,72.45-16.31,2-.81.26-3.43-1.68-2.67l-2.26.89,4.74-3.09v0c.1,1.43,2.3,2.23,3.11.78C705.71,382.42,692,369.72,680,367.44Z" transform="translate(-332.8 -244)"/><path class="cls-31" d="M643.17,489.15a28.23,28.23,0,0,0,29.62-1.56s3.49,30.29-9.52,31.16S643.17,489.15,643.17,489.15Z" transform="translate(-332.8 -244)"/><path class="cls-16" d="M709.11,487.59l-23.71-7.65L668.61,478c-.06,4.3-1.14,32.49-11.08,37-9.8-4.39-11.66-31.8-11.74-36.74l-32.66,5,.16,15.13L607,528.93l4.55,64.15s22.59,4.39,43.09,6.17c32.49,2.82,46.88-6.17,46.88-6.17l6.23-63.27Z" transform="translate(-332.8 -244)"/><path class="cls-19" d="M571.59,378s2.82-10.41,1.41-10.87-2.57-.64-3.41,1.16-4,8.19-4,8.19l-2.79-5.7S559.65,357,559,355.42s-3.63-1.72-3.83.42c-.1,1.11,1.79,16,1.79,16s-6.28-16.72-7.62-17.47-3.68-.05-3.22,2.68c.15.9,4.68,17,4.68,17s-5.56-10-7.13-11.25a2,2,0,0,0-3.32,1.19c-.21,1.3,6.71,15.55,6.71,15.55s-3.85-3.91-5.24-4.66a1.65,1.65,0,0,0-2.55,1.73c.25,1.57,11.51,16.58,11.51,16.58l2.24,10L569.31,398c-.63-1.6-1.39-7.75-1.39-7.75C568.27,389.6,571.59,378,571.59,378Z" transform="translate(-332.8 -244)"/><polygon class="cls-32" points="237.16 152.19 236.32 147.86 214.31 151.22 215.61 157.19 237.16 152.19"/><path class="cls-16" d="M568.35,483.42c-11.41-25.86-21.25-83.27-21.25-83.27L571,394.66S586.75,445,595.16,461c4,7.69,15,20.67,21.8,24.83-4.59,17.58,1.57,30.71-8.76,45.49l.15-1.54S578.39,506.18,568.35,483.42Z" transform="translate(-332.8 -244)"/><polygon class="cls-33" points="412.08 208.96 437.87 208.96 434.54 219.61 415.82 219.61 412.08 208.96"/><path class="cls-19" d="M791.93,401.66s15.4-7.61,17.57,3.26-4.85,21.58-17.4,15.68S791.93,401.66,791.93,401.66Z" transform="translate(-332.8 -244)"/><path class="cls-21" d="M796.51,410.5c1-3.54,2.27-5.56,3.77-6.2a6.44,6.44,0,0,1,7.88,2.59.64.64,0,0,1-.25.92.75.75,0,0,1-1-.23,5.71,5.71,0,0,0-3.71-2.4c2.24,2.14,4.62,6.07,1.51,9.67a.78.78,0,0,1-1,.1.65.65,0,0,1-.11-.95c3.54-4.07-2-8.38-2.2-8.56l0-.06-.45.15c-.49.21-1.74,1.13-3,5.32a.72.72,0,0,1-.7.5l-.19,0A.67.67,0,0,1,796.51,410.5Z" transform="translate(-332.8 -244)"/><path class="cls-19" d="M723.62,401.66s-15.39-7.61-17.56,3.26,4.85,21.58,17.4,15.68S723.62,401.66,723.62,401.66Z" transform="translate(-332.8 -244)"/><path class="cls-21" d="M719.05,410.5c-1-3.54-2.27-5.56-3.77-6.2a6.45,6.45,0,0,0-7.89,2.59.65.65,0,0,0,.25.92.77.77,0,0,0,1-.23,5.68,5.68,0,0,1,3.71-2.4c-2.24,2.14-4.63,6.07-1.51,9.67a.79.79,0,0,0,.57.25.74.74,0,0,0,.45-.15A.64.64,0,0,0,712,414c-3.53-4.07,2-8.38,2.2-8.56a.34.34,0,0,0,.06-.06l.45.15c.48.21,1.74,1.13,3,5.32a.72.72,0,0,0,.7.5l.19,0A.67.67,0,0,0,719.05,410.5Z" transform="translate(-332.8 -244)"/><path class="cls-19" d="M757.81,438.42c-6.28,0-11.37,4.33-11.37,9.68v12.21l-.07,0v-.17c0,5.82,5.08,10.54,11.35,10.54h0c6.26,0,11.35-4.72,11.35-10.54v-1.55h.11V448.1C769.18,442.75,764.09,438.42,757.81,438.42Z" transform="translate(-332.8 -244)"/><g class="cls-34"><g class="cls-23"><path class="cls-19" d="M810,361.35H708.17s-4.46,54.83,2.42,69.35c3.74,7.89,16.22,15.92,28,22.65a42.53,42.53,0,0,0,41.48-.13c11.57-6.71,23.71-14.68,27.43-22.52C814.43,416.18,810,361.35,810,361.35Z" transform="translate(-332.8 -244)"/></g></g><path class="cls-19" d="M799.39,388.16c-.32-10.24-9.38-18.38-20.43-18.38H737c-11.25,0-20.49,8.29-20.81,18.73-.46,14.85,1.59,34.3,4.81,41.7,3,6.88,11,13.88,20.49,19.75a31.52,31.52,0,0,0,33.15-.12c9.25-5.84,17-12.79,20-19.63C797.84,422.75,799.87,403.06,799.39,388.16Z" transform="translate(-332.8 -244)"/><path class="cls-24" d="M795.08,377.14" transform="translate(-332.8 -244)"/><g class="cls-35"><path class="cls-26" d="M776.34,429.46c-.74-1.8-3.43-1.32-8.19.68-5.16,2.17-14.24,2.69-20.72.42-4.9-1.72-7.34-1.89-8.21-.34s4.57,10.69,14.89,11.79a33.69,33.69,0,0,0,8-.16C772.37,440.39,777.15,431.45,776.34,429.46Z" transform="translate(-332.8 -244)"/><path class="cls-27" d="M743.67,428.24s.17,6.35,13,6.55,16.55-2.92,16.61-7.31Z" transform="translate(-332.8 -244)"/><path class="cls-19" d="M748.39,440.86s8.8-4.87,22.4-.31l-10.51,6.28Z" transform="translate(-332.8 -244)"/><g class="cls-28"><path class="cls-19" d="M748.39,440.86s8.8-4.87,22.4-.31l-10.51,6.28Z" transform="translate(-332.8 -244)"/></g></g><g class="cls-23"><path class="cls-19" d="M750,413.87s-.11.43-.29,1.17c-.09.38-.19.83-.27,1.35a4.76,4.76,0,0,0,0,1.64c.09.35.87.81,1.47,1.19a22.75,22.75,0,0,0,2.15,1.1,11.25,11.25,0,0,0,4.93,1.13,9.77,9.77,0,0,0,1.3-.17,11.87,11.87,0,0,0,1.27-.33,18.76,18.76,0,0,0,2.41-.92,19.15,19.15,0,0,0,2.12-1.14,5.93,5.93,0,0,0,.84-.63.76.76,0,0,0,.23-.3,1.92,1.92,0,0,0,.09-.4,16.48,16.48,0,0,0-.08-3.1c-.08-.77-.12-1.2-.12-1.2s.15.41.36,1.16c.1.37.21.83.34,1.35a10,10,0,0,1,.25,1.83,3,3,0,0,1-.07.59,1.59,1.59,0,0,1-.34.58,5.94,5.94,0,0,1-.89.85,14.72,14.72,0,0,1-2.14,1.42,18.43,18.43,0,0,1-2.54,1.14c-.46.14-.93.28-1.42.39a10.61,10.61,0,0,1-1.48.22,11.21,11.21,0,0,1-5.64-1.42,15.23,15.23,0,0,1-2.17-1.38,11.71,11.71,0,0,1-.92-.77,4.12,4.12,0,0,1-.41-.43,1.29,1.29,0,0,1-.29-.61,4.24,4.24,0,0,1,.3-1.89c.17-.52.35-1,.5-1.32C749.76,414.26,750,413.87,750,413.87Z" transform="translate(-332.8 -244)"/></g><path class="cls-24" d="M725.54,425" transform="translate(-332.8 -244)"/><path class="cls-24" d="M725.54,425.13a.09.09,0,0,0,0-.18.09.09,0,1,0,0,.18Z" transform="translate(-332.8 -244)"/><path class="cls-29" d="M742.19,403.18a4.23,4.23,0,1,1-4.22-3.91A4.08,4.08,0,0,1,742.19,403.18Z" transform="translate(-332.8 -244)"/><path class="cls-29" d="M781.81,403.18a4.24,4.24,0,1,1-4.23-3.91A4.08,4.08,0,0,1,781.81,403.18Z" transform="translate(-332.8 -244)"/><path class="cls-30" d="M727,395a22,22,0,0,1,12.67-7.36" transform="translate(-332.8 -244)"/><path class="cls-30" d="M788.59,395a22,22,0,0,0-12.67-7.36" transform="translate(-332.8 -244)"/><path class="cls-20" d="M803.18,374.7a32.31,32.31,0,0,0-5.7-14.09,30.41,30.41,0,0,0,3.74-6.23,26.23,26.23,0,0,0,1.62-16c-.38-2-3.31-2.43-4.72-1.16A35.7,35.7,0,0,1,787,343.81a21.27,21.27,0,0,0,3.56-9.61c.17-2.15-2.43-2.94-4.17-2.22-7.79,3.18-17.34,5-25.38,8.62.2-.38.38-.78.55-1.18.65-.54,3.78-8.42,1.42-8.31-2.54.12-4,4.17-10.19,5.82-3.84,1.17-50.54,3.2-39.89,51.25A51.42,51.42,0,0,0,715.46,399c0,.42.06.84.1,1.26.23,2.39,4.26,2.44,4.07,0,0-.15,0-.32,0-.48s0-.1,0-.17,0-.22,0-.34c.05-1.13.08-2.31.08-3.53a37.26,37.26,0,0,1,2.93-11.63,14.88,14.88,0,0,1,11.39-8.34c7-.95,15.59,1.3,23.15,2.29,10.08,1.32,25.28-6.57,33.61-.34,4.6,5.44,4.95,14.59,6.23,21.19.44,2.31,4.29,1.7,4.31-.54C801.47,390.12,804.54,383.1,803.18,374.7Z" transform="translate(-332.8 -244)"/><polygon class="cls-36" points="412.08 208.96 404.23 214.21 411.65 232.48 424.93 226.72 412.08 208.96"/><polygon class="cls-36" points="437.87 208.96 445.71 214.21 439.74 232.48 425.01 226.72 437.87 208.96"/><path class="cls-18" d="M668.61,478" transform="translate(-332.8 -244)"/><path class="cls-19" d="M787.46,600.36s-8.64,6-7.92,7.09,1.45,1.87,3.21,1,8.09-3.73,8.09-3.73l-1.6,5.65s-6.46,11.66-7,13.17a1.83,1.83,0,0,0,3,1.79c.79-.75,8.88-12.55,8.88-12.55s-6.09,15.53-5.59,16.8,2.63,2.06,4-.17c.46-.73,7.43-14.86,7.43-14.86s-2.32,10.25-2,12,2.18,1.78,3.16.95,5-14.91,5-14.91.3,4.93.83,6.23A1.6,1.6,0,0,0,810,619c.81-1.27,2.21-18.29,2.21-18.29l4.75-8.46-15.07-5.16a57.88,57.88,0,0,1-3.92,6.37C797.25,593.78,787.46,600.36,787.46,600.36Z" transform="translate(-332.8 -244)"/><polygon class="cls-37" points="462.71 340.09 471.61 299.83 473.91 318.92 462.71 340.09"/><polygon class="cls-36" points="466.83 337.46 464.01 345.96 484.06 355.03 487.86 349.32 466.83 337.46"/><path class="cls-18" d="M808.82,462.76s33.52,48.11,35.68,59.57-23.44,74.57-23.44,74.57l-25.54-12.81,19-54.4-15.64-36Z" transform="translate(-332.8 -244)"/><path class="cls-19" d="M611.51,479.09" transform="translate(-332.8 -244)"/><polygon class="cls-32" points="236.83 452.72 189.87 448.34 189.87 448.29 189.64 448.31 189.41 448.29 189.41 448.34 142.44 452.72 136.65 496.35 138.14 496.52 189.41 496.52 189.87 496.52 241.13 496.52 242.62 496.35 236.83 452.72"/><path class="cls-16" d="M522.24,719.3c22.5-.58,53-5.79,53-5.79l-6.89-112.88c.5-5,.6-7.49-5-9.16C555.67,589.16,524.6,576,524.6,576s-.29,0-.44,0v0H519v0c-.14,0-.28,0-.42,0s-30,13.16-37.43,15.47c-5.38,1.67-5.2,4.21-4.71,9.16l-8.24,112.88s30.88,5.2,52.61,5.79Z" transform="translate(-332.8 -244)"/><path class="cls-19" d="M452.5,632s-4.17,24.28-2.54,26.8S478.7,668,497.06,664s40.35-13.27,40.35-13.27l-45.47-11.14-19.57,1.67S458.52,637.64,452.5,632Z" transform="translate(-332.8 -244)"/><g class="cls-38"><path class="cls-39" d="M480,642.9s19.7,7.2,19.7,9.27,1.49,8.22-51.68,6.35c0,0,40.53,23.33,78.83,11.6s10.57-16.91,10.57-16.91Z" transform="translate(-332.8 -244)"/></g><path class="cls-16" d="M445.5,635l23.8,6.58,9.89-2.66,4.8-4.21,30.32-10.86-.18-47.94s-41.66,9.28-53.84,22.39C453.08,606.09,445.5,635,445.5,635Z" transform="translate(-332.8 -244)"/><path class="cls-40" d="M469.38,641.45s3.27-16.82,7.06-28.27l1.4,29.72Z" transform="translate(-332.8 -244)"/><path class="cls-16" d="M599.38,635l-23.8,6.58L565.69,639l-4.81-4.21-30.13-10.86V575.94s41.66,9.28,53.84,22.39C591.8,606.09,599.38,635,599.38,635Z" transform="translate(-332.8 -244)"/><path class="cls-40" d="M575.5,641.45s-3.27-16.82-7.07-28.27L567,642.9Z" transform="translate(-332.8 -244)"/><path class="cls-41" d="M556.46,631.22s3.4-6.6,4.42-8,4.75.76,3.32,3.66-2.09,4-2.09,4Z" transform="translate(-332.8 -244)"/><path class="cls-19" d="M536.7,643.24s21.12-14.41,22.13-14.41,16.11-.32,17.11-.13,1.1,1.72.87,2.49a1.18,1.18,0,0,1-1.1.81l-10.31.65v.2s9.42-.07,13.35.18a1.51,1.51,0,0,1,1.46,1.49h0a1.51,1.51,0,0,1-1.49,1.44l-11.87.86,14.13.77,1.27,3.76-34.61,5Z" transform="translate(-332.8 -244)"/><path class="cls-19" d="M591.58,636.76s2.29,12,2.29,16.83-9.49,10.12-14,10.4S483,644.29,478,643.91a71,71,0,0,1-9.26-1.36s4.52-8,12.87-10.52,17.84,1.48,23.49,2.72,35.9,5.08,51.71,4.83A348.42,348.42,0,0,0,591.58,636.76Z" transform="translate(-332.8 -244)"/><g class="cls-42"><path class="cls-43" d="M591.07,658.52s-25.64-2.21-58.26-7.5-64-8.47-64-8.47l111.75,24.58Z" transform="translate(-332.8 -244)"/></g><g class="cls-44"><path class="cls-19" d="M542.58,639.26l4.62,0,4.61.08,9.22.14c3.07,0,6.14.06,9.21,0,1.54,0,3.07,0,4.61-.09l2.3-.07c.77-.06,1.53-.11,2.31-.14a64.69,64.69,0,0,1-9.19,1.07c-3.09.19-6.17.21-9.25.18s-6.17-.16-9.24-.38S545.63,639.67,542.58,639.26Z" transform="translate(-332.8 -244)"/></g><path class="cls-20" d="M539,482.26c3.66-2.77,9.15-1.7,13.38.25,7.11,3.26,13.2,8.82,15.8,15.78a31.6,31.6,0,0,1,1.78,9.32c.29,4.68-.39,10.06-4.48,12.8a2.91,2.91,0,0,1-1.75.61c-1.19-.09-1.87-1.27-2.26-2.31-1.22-3.3-1.74-6.79-2.78-10.14-3-9.65-10-17.73-17.26-25.17" transform="translate(-332.8 -244)"/><path class="cls-20" d="M539.68,483.44c8.11-4.95,19.92,3.84,24.44,10.34,4,5.71,6.76,16.69,2.68,23.11-3.81,6-6-6.69-6.63-8.73a43.41,43.41,0,0,0-4.08-9.06c-3.32-5.61-8.52-13.22-14.22-16.47a.89.89,0,0,0-1.21,1.22c2.83,5.35,8.2,9.56,11.52,14.74,3.66,5.7,5.14,11.61,7,18,.85,2.92,2.08,6.64,5.85,5.72,3.2-.78,5.23-5,5.93-7.81,2.2-9-1-19.48-7.43-26-5.91-6-17-12.7-25.24-7.45-1.48.95-.13,3.3,1.38,2.37Z" transform="translate(-332.8 -244)"/><path class="cls-20" d="M483.2,520.54c-7.4-9.8-6.81-23.83.34-33.8s20-15.79,32.93-16.18c6.91-.21,14.46,1.34,18.81,6.32,1.18,1.35,2.07,3.33,1,4.75a4.84,4.84,0,0,1-2,1.29c-7.09,3.09-15,4.09-22.62,5.68s-15.45,4-21,9.1a22.11,22.11,0,0,0-6.11,22.87" transform="translate(-332.8 -244)"/><path class="cls-20" d="M484.07,520c-8.92-13.74-4.66-31,8.72-40.18a44.22,44.22,0,0,1,20.59-7.32,36.28,36.28,0,0,1,10.09.25c3.15.57,8.93,2,10.36,5.19q2.38,1.9-1.63,4c-.83.32-1.67.62-2.52.88-2,.65-4,1.17-6,1.64-3.52.82-7.09,1.41-10.63,2.12-6.3,1.26-12.61,3-18.16,6.31-9.6,5.78-14.61,17.09-11.41,28a1.2,1.2,0,0,0,2.32-.64c-3-10.1,1.46-19.76,10.55-24.86,8-4.5,17.66-5.33,26.48-7.22,4.35-.93,16.52-2.25,15.58-8.94-.79-5.58-8.51-8.7-13.21-9.7-13.94-3-30.21,2.28-39.87,12.72s-11.87,27.23-2.95,38.8c.77,1,2.47.11,1.74-1Z" transform="translate(-332.8 -244)"/><path class="cls-19" d="M555.35,521.84s14.59-7.21,16.65,3.09-4.6,20.46-16.49,14.86S555.35,521.84,555.35,521.84Z" transform="translate(-332.8 -244)"/><path class="cls-21" d="M559.69,530.22c1-3.35,2.14-5.27,3.57-5.87a6.12,6.12,0,0,1,7.47,2.45.61.61,0,0,1-.24.87.71.71,0,0,1-.94-.21,5.41,5.41,0,0,0-3.52-2.28c2.13,2,4.39,5.76,1.43,9.16a.68.68,0,0,1-.53.24.77.77,0,0,1-.44-.14.61.61,0,0,1-.1-.9c3.35-3.85-1.86-7.94-2.09-8.11l0-.06-.42.15c-.46.19-1.65,1.07-2.82,5a.68.68,0,0,1-.66.47l-.18,0A.64.64,0,0,1,559.69,530.22Z" transform="translate(-332.8 -244)"/><path class="cls-19" d="M490.62,521.84S476,514.63,474,524.93s4.59,20.46,16.48,14.86S490.62,521.84,490.62,521.84Z" transform="translate(-332.8 -244)"/><path class="cls-21" d="M486.29,530.22c-1-3.35-2.15-5.27-3.58-5.87a6.12,6.12,0,0,0-7.47,2.45.61.61,0,0,0,.24.87.71.71,0,0,0,.94-.21,5.41,5.41,0,0,1,3.52-2.28c-2.13,2-4.39,5.76-1.43,9.16a.71.71,0,0,0,.54.24.76.76,0,0,0,.43-.14.61.61,0,0,0,.1-.9c-3.34-3.85,1.86-7.94,2.09-8.11l.05-.06.43.15c.45.19,1.65,1.07,2.81,5a.68.68,0,0,0,.66.47l.18,0A.64.64,0,0,0,486.29,530.22Z" transform="translate(-332.8 -244)"/><path class="cls-19" d="M532.81,565.85c0-5.06-4.82-9.17-10.78-9.17s-10.77,4.11-10.77,9.17l0,11c0,5.53,4.82,10,10.78,10h0c6,0,10.77-4.47,10.78-10Z" transform="translate(-332.8 -244)"/><g class="cls-45"><g class="cls-23"><path class="cls-19" d="M571.46,483.65H475s-4.22,52,2.3,65.71c3.54,7.48,15.37,15.09,26.57,21.47a40.3,40.3,0,0,0,39.31-.13c11-6.35,22.47-13.91,26-21.34C575.68,535.61,571.46,483.65,571.46,483.65Z" transform="translate(-332.8 -244)"/></g></g><path class="cls-19" d="M562.42,509.06c-.31-9.71-8.89-17.42-19.36-17.42h-39.8c-10.66,0-19.41,7.86-19.72,17.75-.43,14.07,1.51,32.5,4.56,39.51,2.83,6.52,10.46,13.15,19.41,18.71a29.87,29.87,0,0,0,31.41-.1c8.77-5.54,16.13-12.13,19-18.61C561,541.83,562.87,523.17,562.42,509.06Z" transform="translate(-332.8 -244)"/><g class="cls-46"><path class="cls-26" d="M539.38,548.19c-.65-1.71-3-1.25-7.23.64-4.55,2.06-12.58,2.56-18.3.4-4.33-1.63-6.48-1.79-7.26-.32s4,10.13,13.16,11.17a27.58,27.58,0,0,0,7.06-.15C535.88,558.55,540.1,550.08,539.38,548.19Z" transform="translate(-332.8 -244)"/><path class="cls-27" d="M510.53,547s.15,6,11.44,6.21,14.62-2.76,14.67-6.93Z" transform="translate(-332.8 -244)"/><path class="cls-19" d="M514.7,559s7.77-4.62,19.78-.29l-9.28,5.95Z" transform="translate(-332.8 -244)"/><g class="cls-28"><path class="cls-19" d="M514.7,559s7.77-4.62,19.78-.29l-9.28,5.95Z" transform="translate(-332.8 -244)"/></g></g><g class="cls-23"><path class="cls-19" d="M515.59,536.18s-.1.4-.27,1.11c-.08.35-.18.78-.26,1.27a4.81,4.81,0,0,0,0,1.56c.08.33.82.77,1.39,1.13a21.57,21.57,0,0,0,2,1,10.67,10.67,0,0,0,4.67,1.07,8.56,8.56,0,0,0,1.23-.16c.4-.08.8-.19,1.2-.31a16.82,16.82,0,0,0,2.28-.88,17.36,17.36,0,0,0,2-1.07,6.77,6.77,0,0,0,.79-.6c.12-.12.19-.17.22-.28a1.44,1.44,0,0,0,.08-.38,15,15,0,0,0-.07-2.95l-.11-1.13s.14.39.34,1.1c.09.35.2.78.32,1.28a8.34,8.34,0,0,1,.23,1.73,2.14,2.14,0,0,1-.06.56,1.55,1.55,0,0,1-.32.56,6.25,6.25,0,0,1-.84.79,13,13,0,0,1-2,1.35,16,16,0,0,1-2.41,1.08c-.44.14-.88.27-1.34.37a11.21,11.21,0,0,1-1.41.21,10.56,10.56,0,0,1-5.34-1.35,12.72,12.72,0,0,1-2.06-1.31,10.4,10.4,0,0,1-.87-.72c-.12-.12-.29-.29-.39-.41a1.2,1.2,0,0,1-.27-.58,4,4,0,0,1,.28-1.79c.16-.49.33-.91.47-1.25C515.38,536.55,515.59,536.18,515.59,536.18Z" transform="translate(-332.8 -244)"/></g><path class="cls-24" d="M492.43,541.24" transform="translate(-332.8 -244)"/><path class="cls-24" d="M492.43,541.32a.09.09,0,1,0,0-.17.09.09,0,0,0,0,.17Z" transform="translate(-332.8 -244)"/><ellipse class="cls-29" cx="171.42" cy="279.29" rx="4" ry="3.71"/><ellipse class="cls-29" cx="208.95" cy="279.29" rx="4" ry="3.71"/><path class="cls-30" d="M493.79,515.58a20.79,20.79,0,0,1,12-7" transform="translate(-332.8 -244)"/><path class="cls-30" d="M552.19,515.58a20.85,20.85,0,0,0-12-7" transform="translate(-332.8 -244)"/><path class="cls-20" d="M541.1,483.45c.54.78-.06,1.78-.64,2.54-3.39,4.36-6.8,8.76-11.1,12.36s-9.6,6.4-15.36,6.93a2.7,2.7,0,0,1-1.85-.32,2.05,2.05,0,0,1-.59-1.67c0-3.63,2.47-6.84,5.12-9.51a56.18,56.18,0,0,1,18.91-12.5" transform="translate(-332.8 -244)"/><path class="cls-20" d="M540.39,483.45c-.32,2.58-3.72,5.7-5.36,7.61a56.31,56.31,0,0,1-5.19,5.4,32.93,32.93,0,0,1-6.81,4.79c-1.56.79-7.23,3.54-9,2.69-4.36-2.08,6.22-11.54,8.4-13.28,4.23-3.38,9-5.83,13.67-8.56a1,1,0,0,0-.73-1.74c-7.72,2.09-14.85,7.14-20.27,12.95-2.19,2.36-8.05,10.32-3.28,13s13.77-3.5,17.18-6.16A59,59,0,0,0,538.65,490c1.69-2.15,3.93-3.93,3.14-6.74a.72.72,0,0,0-1.4.19Z" transform="translate(-332.8 -244)"/><path class="cls-20" d="M528.74,486.48A132.05,132.05,0,0,1,495,505.17c-2.11.8-4.66,1.5-6.51.26a4,4,0,0,1-1.58-3.9,8.72,8.72,0,0,1,1.91-3.95,33.21,33.21,0,0,1,7.84-7.08,63,63,0,0,1,36.48-10.64" transform="translate(-332.8 -244)"/><path class="cls-20" d="M528,485.73c-2.9,2.77-7.26,4.94-10.69,7.07a108,108,0,0,1-10,5.51q-5.4,2.61-11,4.7c-1.21.45-3.87,1.84-5.26,1.46-5.4-1.46.26-7.2,1.56-8.47,5.31-5.2,12.48-8.87,19.47-11.21a64.73,64.73,0,0,1,9.8-2.45c3.85-.64,7.88-.39,11.66-1.3a1.23,1.23,0,0,0,0-2.35c-9-2.32-20.91,1.74-29,5.46-6.36,2.93-18.31,9.1-19.21,17.16-1,8.82,9.25,5.9,13.82,3.91a153.3,153.3,0,0,0,15.71-8c5.08-2.94,9.47-6.92,14.45-9.86,1.3-.77-.15-2.73-1.28-1.66Z" transform="translate(-332.8 -244)"/><path class="cls-20" d="M540.24,485.52a51.31,51.31,0,0,0,3.26,21.63c1.67,4.36,4.39,8.92,9.12,10.38a2.86,2.86,0,0,0,1.8.09,2.37,2.37,0,0,0,1.22-1.25c1.46-3-.08-6.45-1.68-9.37a199.63,199.63,0,0,0-15.11-23.54" transform="translate(-332.8 -244)"/><path class="cls-20" d="M539.33,485.52c-.78,8.48.11,17.28,4,25,1.76,3.49,6.69,10.27,11.51,8.58,5.35-1.87,2.14-9.75.52-12.92-4.13-8.09-9.22-17.13-15.51-23.72a1.41,1.41,0,0,0-2.21,1.7c2.57,4.59,6,8.78,8.78,13.23,2.57,4.05,9,12,7.32,16.66-1,2.81-1.9,1.74-3.87.14a13.52,13.52,0,0,1-2.85-3.32,31.33,31.33,0,0,1-3.26-7.62,58.27,58.27,0,0,1-2.59-17.74.92.92,0,0,0-1.83,0Z" transform="translate(-332.8 -244)"/><path class="cls-20" d="M541.2,484.9l7.35,14.3c3.53,6.87,7.34,14.05,14,18.45a4.27,4.27,0,0,0,2.36.9,2.94,2.94,0,0,0,2.64-2.29,6.53,6.53,0,0,0-.39-3.56c-2.07-6.31-6.25-11.88-11.22-16.59s-10.74-8.63-16.54-12.44" transform="translate(-332.8 -244)"/><path class="cls-20" d="M540.44,485.35c1.87,4.35,19.26,44.65,28,33.07,3.94-5.25-3.68-15.07-6.9-18.94-5.39-6.45-13.79-14.08-21.72-17.09-1.3-.49-2.14,1.33-1.29,2.22,4.49,4.68,10.81,7.68,15.63,12.13a49.7,49.7,0,0,1,6.6,7.3c1.54,2.12,5,6.43,4.8,9.12l-2.08,3a24.7,24.7,0,0,1-3.36-2.66,30,30,0,0,1-3-3.3,57.08,57.08,0,0,1-5-7.67c-3.41-6-6.56-12.15-10.14-18.07-.6-1-2-.13-1.52.89Z" transform="translate(-332.8 -244)"/><path class="cls-20" d="M542.15,479.48a16.45,16.45,0,0,0-5.72-13.91,1.13,1.13,0,0,0-.65-.33c-.43,0-.72.4-.82.78-.34,1.25.35,2.52,1,3.66l5.3,9.07" transform="translate(-332.8 -244)"/><path class="cls-20" d="M542.88,479.68a15.62,15.62,0,0,0-1-9.25c-.94-2-3.32-6.4-5.87-6.6s-2.76,3.06-2.13,4.8a35.68,35.68,0,0,0,3,5.42c1.09,1.89,2,4.05,3.6,5.56a1.22,1.22,0,0,0,2-1.18c-.3-1.19-6.63-11.63-5.93-11.95h-1.45c4.16,2.12,6.29,8.71,6.35,13,0,.81,1.34,1.06,1.48.2Z" transform="translate(-332.8 -244)"/><path class="cls-20" d="M531.79,480c-.3-5.46-6.12-9.27-11.79-10.76-14.85-3.91-31.07,2.52-42,12.63-3.07,2.83-6,6.49-5.38,10.46a31.56,31.56,0,0,0,15.1-7.59" transform="translate(-332.8 -244)"/><path class="cls-20" d="M532.68,480c-.18-14-21.43-14.4-31-12.49a50.88,50.88,0,0,0-20.37,9.4c-5,3.76-10.77,8.56-10.43,15.42a1.75,1.75,0,0,0,2.18,1.66c5.74-1.28,12.18-3.72,15.78-8.6.82-1.11-.73-2.35-1.78-1.78-5.06,2.77-9.12,5.75-14.91,7.06l2.18,1.66c-.32-6.29,6.59-11.15,11.28-14.28a53.21,53.21,0,0,1,14.64-6.85c9.43-2.75,27.38-3.06,30.69,9a.9.9,0,0,0,1.75-.24Z" transform="translate(-332.8 -244)"/><path class="cls-20" d="M475,485.27c3.73-9.47,14.07-15.38,24.48-18.29,7.57-2.12,15.9-3,23.29-.38s13.42,9.48,12.68,16.79" transform="translate(-332.8 -244)"/><path class="cls-20" d="M476.45,486.1c4.78-10.94,16.61-16.05,27.68-18.29,6.66-1.34,14.19-1.54,20.38,1.66,6,3.13,8.39,8,9.26,14.39.24,1.78,3.06,1.62,3.43,0,1.35-5.93-2.54-11.83-7-15.39-6-4.79-14-5.94-21.49-5.18-13.5,1.36-29.4,7.9-35.08,21.14-.83,1.93,2,3.62,2.85,1.67Z" transform="translate(-332.8 -244)"/><path class="cls-20" d="M542.16,477.34l-.69.54c2.26-4.13,7.8-6,12.77-5.55.73.07,1.58.26,1.88.88.52,1.07-1,2-2.18,2.34l-13.22,3.93" transform="translate(-332.8 -244)"/><path class="cls-20" d="M541.89,476.37l-.76.25,1.27,2.19c1.65-1.69,3-3.2,5.27-4.05.58-.21,6.33-1.7,6.57-.88,0,.09-12.94,4.13-14,4.76a1,1,0,0,0,.49,1.81,30.13,30.13,0,0,0,7-1.65,54.32,54.32,0,0,0,7.37-2.18c2-.88,3.71-3.11,1.66-4.95s-6.64-1-9.06-.28c-3.07.94-6.38,3-7.43,6.15-.48,1.44,1.62,2.22,2.38,1l.43-.69a1,1,0,0,0-1.14-1.48Z" transform="translate(-332.8 -244)"/><path class="cls-47" d="M491.45,512.55h21.4c2.89,0,5.24,2.06,5.24,4.61v8.7c0,5.15-4.75,9.33-10.6,9.33H497c-6,0-10.81-4.26-10.81-9.52v-8.51C486.21,514.61,488.56,512.55,491.45,512.55Z" transform="translate(-332.8 -244)"/><path class="cls-48" d="M491.45,512.55h21.4c2.89,0,5.24,2.06,5.24,4.61v8.7c0,5.15-4.75,9.33-10.6,9.33H497c-6,0-10.81-4.26-10.81-9.52v-8.51C486.21,514.61,488.56,512.55,491.45,512.55Z" transform="translate(-332.8 -244)"/><line class="cls-49" x1="150.68" y1="275.39" x2="153.41" y2="276.57"/><path class="cls-47" d="M555.52,512.55h-21.4c-2.9,0-5.24,2.06-5.24,4.61v8.7c0,5.15,4.74,9.33,10.6,9.33H550c6,0,10.81-4.26,10.81-9.52v-8.51C560.76,514.61,558.41,512.55,555.52,512.55Z" transform="translate(-332.8 -244)"/><path class="cls-48" d="M555.52,512.55h-21.4c-2.9,0-5.24,2.06-5.24,4.61v8.7c0,5.15,4.74,9.33,10.6,9.33H550c6,0,10.81-4.26,10.81-9.52v-8.51C560.76,514.61,558.41,512.55,555.52,512.55Z" transform="translate(-332.8 -244)"/><line class="cls-49" x1="230.69" y1="275.39" x2="227.96" y2="276.57"/><line class="cls-50" x1="186.02" y1="277.36" x2="195.12" y2="277.36"/><path class="cls-20" d="M740,578.5c-2.29-7.17-5.83-14.1-7.26-21.49-1.4-7.23-.84-14.72-1.73-22-1.2-9.8-3.51-20.85-11.63-27.94-3.56-3.11-8.1-4.69-12.85-5.49-1.59-.27-7.53-1.35-6.69-.46-1.26-.92-2.43-2.38-3.7-3.21a32.67,32.67,0,0,0-10.93-4.51c-20.48-4.49-44.1,6.57-50.07,27.24-4.18,14.49,1.1,29.35-3.37,44.07-3.5,11.5-7.44,56.41-1.13,67.73.7,1.24,5.09,18.46,6.33,17.89,15.84-7.26,29,4.84,44.22,6.34,19.17,1.88,47.78-4.33,57.59-11.47C744.38,637.33,742.25,587.2,740,578.5Z" transform="translate(-332.8 -244)"/><path class="cls-19" d="M713.5,550s14.15-7,16.15,3-4.46,19.85-16,14.42S713.5,550,713.5,550Z" transform="translate(-332.8 -244)"/><path class="cls-20" d="M721.45,565.53a1.17,1.17,0,1,0,1.16-1.09A1.13,1.13,0,0,0,721.45,565.53Z" transform="translate(-332.8 -244)"/><path class="cls-21" d="M717.71,558.14c.95-3.25,2.08-5.12,3.46-5.7a5.93,5.93,0,0,1,7.25,2.37.59.59,0,0,1-.23.85.68.68,0,0,1-.91-.21,5.27,5.27,0,0,0-3.41-2.21c2.06,2,4.25,5.59,1.38,8.89a.65.65,0,0,1-.52.23.72.72,0,0,1-.42-.13.6.6,0,0,1-.1-.87c3.25-3.74-1.81-7.71-2-7.88,0,0,0,0-.05-.05a3.45,3.45,0,0,0-.42.14c-.44.19-1.6,1-2.73,4.89a.66.66,0,0,1-.64.46l-.17,0A.61.61,0,0,1,717.71,558.14Z" transform="translate(-332.8 -244)"/><path class="cls-19" d="M650.69,550s-14.15-7-16.15,3,4.46,19.85,16,14.42S650.69,550,650.69,550Z" transform="translate(-332.8 -244)"/><path class="cls-20" d="M642.74,565.53a1.17,1.17,0,1,1-1.16-1.09A1.13,1.13,0,0,1,642.74,565.53Z" transform="translate(-332.8 -244)"/><path class="cls-21" d="M646.49,558.14c-1-3.25-2.09-5.12-3.47-5.7a5.94,5.94,0,0,0-7.25,2.37.59.59,0,0,0,.23.85.7.7,0,0,0,.92-.21,5.2,5.2,0,0,1,3.4-2.21c-2.06,2-4.25,5.59-1.38,8.89a.65.65,0,0,0,.52.23.72.72,0,0,0,.42-.13.59.59,0,0,0,.1-.87c-3.25-3.74,1.81-7.71,2-7.88l0-.05a3.45,3.45,0,0,1,.42.14c.44.19,1.6,1,2.73,4.89a.66.66,0,0,0,.64.46l.18,0A.63.63,0,0,0,646.49,558.14Z" transform="translate(-332.8 -244)"/><path class="cls-19" d="M694.62,606l-3-2V592.71c0-4.92-4.68-8.9-10.46-8.9s-10.45,4-10.45,8.9v11.87l-3,1.39-1.66,17.86h34.2Z" transform="translate(-332.8 -244)"/><g class="cls-51"><g class="cls-23"><path class="cls-19" d="M729.13,513H635.52s-4.09,50.41,2.23,63.76c3.44,7.25,14.92,14.64,25.79,20.83a39.11,39.11,0,0,0,38.14-.12c10.64-6.17,21.8-13.5,25.22-20.71C733.23,563.36,729.13,513,729.13,513Z" transform="translate(-332.8 -244)"/></g></g><path class="cls-19" d="M720.36,537.6c-.3-9.42-8.63-16.9-18.79-16.9H663c-10.35,0-18.84,7.62-19.14,17.22-.42,13.65,1.47,31.53,4.42,38.34,2.75,6.33,10.15,12.76,18.84,18.16a29,29,0,0,0,30.48-.11c8.51-5.37,15.65-11.76,18.39-18C718.93,569.4,720.79,551.29,720.36,537.6Z" transform="translate(-332.8 -244)"/><path class="cls-24" d="M716.39,508.1" transform="translate(-332.8 -244)"/><g class="cls-52"><path class="cls-26" d="M696.47,575.57c-.57-1.66-2.66-1.21-6.34.63a21.67,21.67,0,0,1-16,.38c-3.8-1.58-5.68-1.74-6.36-.31s3.54,9.82,11.53,10.84a22,22,0,0,0,6.19-.15C693.39,585.62,697.1,577.4,696.47,575.57Z" transform="translate(-332.8 -244)"/><path class="cls-27" d="M671.17,574.44s.13,5.85,10,6,12.82-2.68,12.87-6.72Z" transform="translate(-332.8 -244)"/><path class="cls-19" d="M674.82,586.05s6.82-4.48,17.35-.28L684,591.54Z" transform="translate(-332.8 -244)"/><g class="cls-28"><path class="cls-19" d="M674.82,586.05s6.82-4.48,17.35-.28L684,591.54Z" transform="translate(-332.8 -244)"/></g></g><g class="cls-23"><path class="cls-19" d="M674.92,561.24s-.09.39-.26,1.08a11,11,0,0,0-.25,1.23,4.26,4.26,0,0,0,0,1.51c.07.32.79.75,1.35,1.1s1.28.68,2,1a10.49,10.49,0,0,0,4.53,1,8.12,8.12,0,0,0,1.2-.16,11.61,11.61,0,0,0,1.16-.3,17.29,17.29,0,0,0,2.22-.85,16.21,16.21,0,0,0,1.95-1,4.94,4.94,0,0,0,.78-.58.71.71,0,0,0,.21-.27,1.72,1.72,0,0,0,.07-.37,14,14,0,0,0-.07-2.85l-.1-1.11s.13.39.33,1.07c.08.34.19.76.31,1.25a9.34,9.34,0,0,1,.23,1.68,2.41,2.41,0,0,1-.07.53,1.49,1.49,0,0,1-.31.55,6,6,0,0,1-.82.77,13.37,13.37,0,0,1-2,1.31,15.51,15.51,0,0,1-2.34,1,11.94,11.94,0,0,1-1.3.36,10.39,10.39,0,0,1-1.37.21,10.26,10.26,0,0,1-5.18-1.31,12.67,12.67,0,0,1-2-1.27c-.3-.23-.58-.46-.84-.7a4.67,4.67,0,0,1-.38-.4,1.18,1.18,0,0,1-.27-.56,3.93,3.93,0,0,1,.28-1.74,12.63,12.63,0,0,1,.46-1.21C674.72,561.6,674.92,561.24,674.92,561.24Z" transform="translate(-332.8 -244)"/></g><path class="cls-24" d="M652.45,571.5" transform="translate(-332.8 -244)"/><path class="cls-24" d="M652.45,571.59a.09.09,0,0,0,0-.17.09.09,0,1,0,0,.17Z" transform="translate(-332.8 -244)"/><path class="cls-29" d="M667.77,551.41a3.9,3.9,0,1,1-3.89-3.6A3.75,3.75,0,0,1,667.77,551.41Z" transform="translate(-332.8 -244)"/><path class="cls-29" d="M704.19,551.41a3.9,3.9,0,1,1-3.88-3.6A3.75,3.75,0,0,1,704.19,551.41Z" transform="translate(-332.8 -244)"/><path class="cls-30" d="M653.76,543.93a20.16,20.16,0,0,1,11.65-6.77" transform="translate(-332.8 -244)"/><path class="cls-30" d="M710.43,543.93a20.16,20.16,0,0,0-11.65-6.77" transform="translate(-332.8 -244)"/><path class="cls-32" d="M691.63,514s2.6,22.9,28.92,28.48l2.06-12.16S710.92,513.76,691.63,514Z" transform="translate(-332.8 -244)"/><path class="cls-32" d="M696.42,508.1s7.24,16.57-12,26.9c-17.51,9.38-24.78-9.82-40.49,12.63,0,0-8-12.25,1.06-26.93C649.79,512.83,682.46,500.85,696.42,508.1Z" transform="translate(-332.8 -244)"/><path class="cls-19" d="M762.3,491.94s-2.58-9.57-1.29-10,2.36-.59,3.14,1.08,3.67,7.53,3.67,7.53l2.57-5.24s2.9-12.64,3.48-14.12,3.33-1.58,3.51.39c.1,1-1.64,14.71-1.64,14.71s5.77-15.37,7-16.06,3.39,0,3,2.46c-.14.83-4.31,15.65-4.31,15.65s5.11-9.17,6.56-10.35a1.81,1.81,0,0,1,3,1.09c.19,1.2-6.17,14.3-6.17,14.3a40.15,40.15,0,0,1,4.81-4.28,1.52,1.52,0,0,1,2.35,1.59c-.24,1.44-9.49,13.85-9.49,13.85l-3.16,10.59-15-4.78a54.75,54.75,0,0,0,1.28-7.12C765.35,502.62,762.3,491.94,762.3,491.94Z" transform="translate(-332.8 -244)"/><polygon class="cls-32" points="429.12 263.98 430.21 260.05 450.14 264.49 448.38 268.63 429.12 263.98"/><path class="cls-16" d="M763.41,598.57C773.9,574.79,783,512.32,783,512.32L761,507.27s-14.53,47.9-22.26,62.58c-3.72,7.07-18.44,27.93-24.69,31.76,4.22,16.15,12.47,31.46,22,45l-.14-1.42S754.17,619.49,763.41,598.57Z" transform="translate(-332.8 -244)"/><path class="cls-31" d="M700,707.33l7.16-94.21c-28.53,15.29-47.53.42-47.53.42l8.1,93.79Z" transform="translate(-332.8 -244)"/><path class="cls-16" d="M663.88,710.63c-.21-4.88,10.63-13.36,10.59-18.71-.47-62.82-6.32-78.48-6.7-85.95l-21.72,6.26c-20.63,6-31.36,21.74-32,41.78l-2.85,53.32Z" transform="translate(-332.8 -244)"/><path class="cls-16" d="M736.05,646.66A171.8,171.8,0,0,1,723,624.85a17.6,17.6,0,0,0-2.21-4.65,117.2,117.2,0,0,1-6.68-18.59,4.43,4.43,0,0,1-1.22.56c-9.39,2.27-18.27,3.8-18.27,3.8l0,.31c-.48,8-4.94,42.1-6.68,85.64-.22,5.35-.44,10.53-.65,15.41H742.2Z" transform="translate(-332.8 -244)"/><polygon class="cls-53" points="309.94 463.33 304.15 406.31 304.15 463.33 309.94 463.33"/><path class="cls-20" d="M264,402.66H427.61a4.93,4.93,0,0,1,4.93,4.93v88.93a0,0,0,0,1,0,0H259a0,0,0,0,1,0,0V407.59A4.93,4.93,0,0,1,264,402.66Z"/><path class="cls-54" d="M689.42,700.58c0,5.55-4.85,10-10.83,10s-10.84-4.5-10.84-10,4.86-10.06,10.84-10.06S689.42,695,689.42,700.58Z" transform="translate(-332.8 -244)"/><path class="cls-20" d="M831.31,679.73l-4.59,60.79,104.25-.3s-2.57-44.76-9.85-59.58S831.31,679.73,831.31,679.73Z" transform="translate(-332.8 -244)"/><path class="cls-16" d="M853.91,586.74h6.88l28.41,2,14.7,2.55,22.56,60,6,62.82s-71,6.59-107.16,0l1.18-99.66Z" transform="translate(-332.8 -244)"/><path class="cls-19" d="M829.77,476.1c-1.09-.68-2-1.06-3.17.3s-5.31,6.15-5.31,6.15l-1-5.4s.53-12.3.37-13.79-2.67-2.19-3.34-.42c-.35.93-2.22,13.95-2.22,13.95s-1.43-15.46-2.39-16.36-3.12-.79-3.36,1.62c-.08.8,0,15.39,0,15.39s-2.4-9.58-3.43-11a1.76,1.76,0,0,0-3.1.34c-.48,1.06,2.07,14.55,2.07,14.55a35.65,35.65,0,0,0-3.36-5,1.48,1.48,0,0,0-2.57.95c-.15,1.38,5.24,14.86,5.24,14.86l.22,10.47,15-1.14a52.39,52.39,0,0,1,.63-6.86c.45-.49,6-9.68,6-9.68S830.85,476.78,829.77,476.1Z" transform="translate(-332.8 -244)"/><path class="cls-16" d="M826.45,614.5l25-4.71,2.43-23c.66.24-4.87-3.88-8-7.39-8.75-9.66-16.18-14.19-17.2-18.72-2.53-11.29-6-67.54-6-67.54l-25,2.24s-1.69,55.26,2.73,79.83C802.44,587,821.9,606,826.45,614.5Z" transform="translate(-332.8 -244)"/><path class="cls-20" d="M880.17,492.44c-.38-4.18-4.73-7.09-9-8.44-11.22-3.52-25.17.7-30.6,10.47-4.32,7.78-2.9,17.08-3.57,25.81" transform="translate(-332.8 -244)"/><path class="cls-20" d="M881.6,492.44c-.94-13.8-22.29-13.13-31.24-9.16a23.42,23.42,0,0,0-12.76,12.89,38.23,38.23,0,0,0-1.89,11.68c-.18,3.92-.86,8.94.65,12.61a.66.66,0,0,0,1.18.15c2.45-4.28,1.13-10.44,1.67-15.23.72-6.46,3.52-12.39,9-16.11,7.49-5.13,27-8,30.61,3.55.47,1.47,2.93,1.29,2.81-.38Z" transform="translate(-332.8 -244)"/><path class="cls-20" d="M861,559.09a48.37,48.37,0,0,0-6.85-8.76c-3.78-4-5.71-6.8-7.34-11.94-1.18-3.75-3.37-8-7.37-8.48a1.4,1.4,0,0,0-2.06-1.55c-6.86,2.9-6.53,9.79-7.84,15.75-1.8,8.19-9.23,13.59-11.27,21.57-.41,1.62-.82,3.76.6,5.12,1.87,1.8,2.38.33,4.37.38,5.7.11,8.32,3.78,13.29,5.08,2.16.56,5,.48,7,.84,2.51.44,4.89,1.39,7.42,1.74,4.76.64,10.21-.08,12.67-4.42C866.42,569.53,863.56,563.47,861,559.09Z" transform="translate(-332.8 -244)"/><path class="cls-20" d="M835.53,530.35a132,132,0,0,1-.17-14.62,34.73,34.73,0,0,1,1.81-10.82,25.93,25.93,0,0,1,9.77-11.71c4.28-2.94,9.7-5,14.65-3.48,3.85,1.17,6.82,4.32,8.63,7.87s2.63,7.51,3.44,11.42" transform="translate(-332.8 -244)"/><path class="cls-20" d="M836.48,530.35c0-12.44-.61-26.57,10.32-34.78,5.37-4,13-6.77,18.52-1.46,4.57,4.34,4.32,10.46,7.06,15.65.73,1.38,2.65.61,2.75-.75.5-6.46-3.1-14.57-8.26-18.56s-11.73-3.64-17.45-.81c-16.34,8.07-16.81,24.72-14.83,40.71.14,1.17,1.89,1.26,1.89,0Z" transform="translate(-332.8 -244)"/><path class="cls-20" d="M931.19,577.08a1.87,1.87,0,0,0-.31-.74,28.85,28.85,0,0,0-4.75-5.08c-4.94-4.41-4.55-9.19-1.7-14.22s3.22-10.87,4.1-16.74c1.68-11.27,0-40.82-7.8-50.09-6.57-7.83-46.41-30.49-62.15-5.53-4.26,6.75,18,11.56,16.84,20.21-1.51,11.24,12.09,16,20.52,20.21,15.55,7.76,15,24.54,1.31,33.88-4.72,3.21-10,4.49-15.27,6.65-3,1.21-7.65,3.61-7.87,7.16-.12,1.88,1.48,4.14,3.23,5,2.13,1.06,4.33.62,6.51,1.69,2.88,1.42,4.15,4.21,6.85,6,4.09,2.68,7.37,2.13,11.7.79,5.87-1.82,10.07,2.91,16.1,2.74.81,0,1.64-.59,2.38-.57,1.32,0,2.89.86,4.25.86,1.84,0,2,.36,3.77-1C932.46,585.69,932.6,580.7,931.19,577.08Z" transform="translate(-332.8 -244)"/><path class="cls-19" d="M903.31,538.75S918.54,535.07,918,545s-9.15,18-18.83,10.38S903.31,538.75,903.31,538.75Z" transform="translate(-332.8 -244)"/><path class="cls-21" d="M905.33,547.4c1.71-2.9,3.25-4.44,4.71-4.7a5.63,5.63,0,0,1,6.34,3.8.61.61,0,0,1-.43.76.65.65,0,0,1-.82-.39,4.89,4.89,0,0,0-2.72-2.83c1.49,2.31,2.69,6.23-.86,8.78a.68.68,0,0,1-.55.11.64.64,0,0,1-.37-.22.57.57,0,0,1,.12-.85c4-2.89.17-7.74,0-8,0,0,0,0,0-.06a3.34,3.34,0,0,0-.43,0c-.47.08-1.79.65-3.81,4.09a.68.68,0,0,1-.73.3.44.44,0,0,1-.16-.06A.58.58,0,0,1,905.33,547.4Z" transform="translate(-332.8 -244)"/><path class="cls-19" d="M845.17,526s-11.07-10.39-16.09-1.56-2.05,19.81,10.47,17.85S845.17,526,845.17,526Z" transform="translate(-332.8 -244)"/><path class="cls-21" d="M838.67,532.52c.13-3.3-.35-5.35-1.46-6.27-2.86-2.36-6.19-.86-7.54.26a.58.58,0,0,0-.06.86.7.7,0,0,0,.93,0,5.4,5.4,0,0,1,3.89-1.15c-2.55,1.29-5.74,4.09-4.09,8a.66.66,0,0,0,.41.36.74.74,0,0,0,.44,0,.6.6,0,0,0,.37-.79c-1.87-4.38,4.11-6.73,4.37-6.83l.06,0a3.79,3.79,0,0,1,.35.25c.35.29,1.17,1.4,1,5.32a.61.61,0,0,0,.46.6.47.47,0,0,0,.17,0A.64.64,0,0,0,838.67,532.52Z" transform="translate(-332.8 -244)"/><path class="cls-19" d="M885.06,575.07c.47-4.81-3.73-9.09-9.38-9.56s-10.6,3-11.07,7.86l-1,10.45c-.51,5.24,3.66,7.29,9.31,7.76h0c5.65.47,10.64-3.4,11.15-8.64Z" transform="translate(-332.8 -244)"/><g class="cls-55"><g class="cls-23"><path class="cls-19" d="M914.76,492.41l-45.93,1.25h0l-45.92,1.25s-2.46,49.59,4.17,62.52c3.6,7,15.09,14,25.95,19.75A38.37,38.37,0,0,0,890.45,576c10.25-6.34,21-13.83,24.11-21C920.35,541.77,914.76,492.41,914.76,492.41Z" transform="translate(-332.8 -244)"/></g></g><path class="cls-19" d="M912.91,528.36c2-9.06-4.08-18-13.78-20.13l-18.6-4.12h0l-18.28-4.06c-9.88-2.19-19.86,3.29-22.51,12.4-3.76,12.95-6.35,30.42-5.2,37.55,1.07,6.62,6.55,14.33,13.52,21.33a28.18,28.18,0,0,0,29.13,6.35c9.45-3.33,17.84-7.92,22-13.34C903.72,558.42,910,541.52,912.91,528.36Z" transform="translate(-332.8 -244)"/><g class="cls-56"><path class="cls-26" d="M852,559.1c.64-1.5,2.3-.91,5.11,1.12A15.69,15.69,0,0,0,870.19,562c3.27-1.15,4.83-1.14,5.23.25s-3.92,8.87-10.56,9.13a15.76,15.76,0,0,1-5-.67C853.46,568.74,851.3,560.75,852,559.1Z" transform="translate(-332.8 -244)"/><path class="cls-27" d="M872.79,560.22s-.72,5.44-8.83,4.75-10.19-3.59-9.8-7.37Z" transform="translate(-332.8 -244)"/><path class="cls-19" d="M868.59,570.73s-5.1-4.76-14.14-1.75l6,6.08Z" transform="translate(-332.8 -244)"/><g class="cls-28"><path class="cls-19" d="M868.59,570.73s-5.1-4.76-14.14-1.75l6,6.08Z" transform="translate(-332.8 -244)"/></g></g><g class="cls-23"><path class="cls-19" d="M857.57,543.41l-.52,1c-.16.31-.35.68-.54,1.13a4.46,4.46,0,0,0-.39,1.44c0,.31.58.87,1,1.32a17.84,17.84,0,0,0,1.64,1.39,9.86,9.86,0,0,0,4.07,2,8.41,8.41,0,0,0,1.18.1,11.63,11.63,0,0,0,1.18,0,15.94,15.94,0,0,0,2.33-.34,19.11,19.11,0,0,0,2.12-.58,5.16,5.16,0,0,0,.88-.4c.14-.08.21-.11.27-.21a1.35,1.35,0,0,0,.17-.34,14.82,14.82,0,0,0,.63-2.74c.11-.68.17-1.07.17-1.07s0,.39.06,1.09c0,.34,0,.76,0,1.25a8,8,0,0,1-.19,1.65,2.18,2.18,0,0,1-.2.5,1.3,1.3,0,0,1-.42.45,5.68,5.68,0,0,1-1,.57,14.58,14.58,0,0,1-2.2.84,17.14,17.14,0,0,1-2.49.5,11.63,11.63,0,0,1-1.33.06,9.56,9.56,0,0,1-1.35-.09,9.71,9.71,0,0,1-4.63-2.35,12.15,12.15,0,0,1-1.59-1.63,9.8,9.8,0,0,1-.63-.85,4.56,4.56,0,0,1-.27-.46,1.16,1.16,0,0,1-.12-.59,4.29,4.29,0,0,1,.69-1.61c.27-.42.53-.77.74-1.05C857.29,543.7,857.57,543.41,857.57,543.41Z" transform="translate(-332.8 -244)"/></g><path class="cls-24" d="M840.38,543.79" transform="translate(-332.8 -244)"/><path class="cls-24" d="M840.36,543.87c.11,0,.15-.14,0-.16a.08.08,0,1,0,0,.16Z" transform="translate(-332.8 -244)"/><path class="cls-29" d="M854.82,530.91a3.85,3.85,0,0,1-4.66,2.51,3.52,3.52,0,0,1-2.71-4.32,3.85,3.85,0,0,1,4.67-2.51A3.52,3.52,0,0,1,854.82,530.91Z" transform="translate(-332.8 -244)"/><path class="cls-29" d="M889.38,539.43a3.84,3.84,0,0,1-4.66,2.51,3.52,3.52,0,0,1-2.7-4.32,3.83,3.83,0,0,1,4.66-2.51A3.51,3.51,0,0,1,889.38,539.43Z" transform="translate(-332.8 -244)"/><path class="cls-30" d="M845.5,519.81a20.72,20.72,0,0,1,13-3.26" transform="translate(-332.8 -244)"/><path class="cls-30" d="M898.71,534.89a18.65,18.65,0,0,0-8.85-9.45" transform="translate(-332.8 -244)"/><path class="cls-20" d="M920.73,531.09" transform="translate(-332.8 -244)"/><path class="cls-20" d="M920.73,532.31a1.22,1.22,0,0,0,0-2.43,1.22,1.22,0,0,0,0,2.43Z" transform="translate(-332.8 -244)"/><path class="cls-20" d="M909,500.62c-6.8-7.35-23.41-14.85-33.82-10-8.55,4-9.73,18.12-5.49,25,8.31,13.44,35.72,6.21,40.3,22a.61.61,0,0,0,1.18-.3c0-.11-.06-.21-.08-.33l2.58-2.43c.84.66,2.49.55,2.68-.66C918,523.06,916.94,509.24,909,500.62Z" transform="translate(-332.8 -244)"/><path class="cls-20" d="M870.29,499.78a19.2,19.2,0,0,1-12.52,7.87c-3,.52-6.13.36-9,1.35a17.26,17.26,0,0,0-10.44,9.64c-.37.85-1.63,1.79-2.07,1a1.2,1.2,0,0,1-.09-.5,36.8,36.8,0,0,1,3.57-17.58c2.77-5.86,8.57-10.88,15.45-11.3s14,5.15,13.24,11.51" transform="translate(-332.8 -244)"/><path class="cls-20" d="M869.4,498.89c-3,3.27-6.12,5.87-10.49,7.08-3.94,1.1-7.95.62-11.79,2.22a18.77,18.77,0,0,0-6.08,4.07,19,19,0,0,0-2.25,2.81,12.58,12.58,0,0,0-1,1.69,1.65,1.65,0,0,0-.15,2.35c.61-.86.11-3.82.22-5a33.71,33.71,0,0,1,1.54-7.44,23.63,23.63,0,0,1,6.6-10.75c7.07-6.13,19.93-5.16,21,5.85.15,1.55,2.62,2.19,2.95.4,1.61-8.67-8.57-14.47-16.14-13.39-10.44,1.49-16.5,11.38-18.34,21-.45,2.35-2.29,9.52.17,11.09,3,1.92,4.64-3.15,5.81-4.75,4.71-6.46,11.33-5.58,18.25-7.36a19,19,0,0,0,11.71-8.28c.71-1.21-1-2.58-2-1.52Z" transform="translate(-332.8 -244)"/><polygon class="cls-20" points="526.91 335.84 541.12 337.81 555.14 337.22 555.96 349.35 541.61 348.9 525.75 347.16 526.91 335.84"/><polygon class="cls-57" points="526.91 335.84 541.12 337.81 555.14 337.22 555.96 349.35 541.61 348.9 525.75 347.16 526.91 335.84"/><path class="cls-40" d="M884.51,664.68s30.8,17,45.46,22.19L929.2,679Z" transform="translate(-332.8 -244)"/><path class="cls-19" d="M879.36,627.37c-1.14.6-1.92,1.22-1.1,2.77s3.61,7.13,3.61,7.13l-5.68-1.51s-11.66-5.86-13.18-6.39-3.29,1.26-1.87,2.6c.74.7,12.51,8,12.51,8s-15.58-5.62-16.87-5.22-2.14,2.25.09,3.51c.73.42,14.88,6.78,14.88,6.78s-10.32-2.23-12.14-2a1.56,1.56,0,0,0-1,2.73c.82.87,15,4.69,15,4.69a43,43,0,0,0-6.32.59,1.34,1.34,0,0,0-.21,2.57c1.27.73,16.68,2.17,16.68,2.17l10.23,4.43,5.52-13a61.47,61.47,0,0,1-6.36-3.54c-.28-.6-6.73-9.25-6.73-9.25S880.5,626.76,879.36,627.37Z" transform="translate(-332.8 -244)"/><path class="cls-16" d="M903.9,591.33s14,2.27,20.6,10.24c5.51,6.65,31.73,60,27.3,67.86-1.32,2.33-3.89,16.6-12.71,14.65-20.83-4.61-54.58-19.4-54.58-19.4l11.85-23.78,24.31,5.55-9.45-27.92Z" transform="translate(-332.8 -244)"/><polygon class="cls-40" points="563.56 396.9 587.87 401.54 587.87 402.45 563.56 396.9"/><path class="cls-58" d="M782.53,683.12V672.67a3.76,3.76,0,0,0-3.9-3.62h0a3.77,3.77,0,0,0-3.9,3.62v13.81a4.27,4.27,0,0,0,4.42,4.1h16.74v-7.24H782.77A.23.23,0,0,1,782.53,683.12Z" transform="translate(-332.8 -244)"/><path class="cls-59" d="M808.18,700V689.56a3.77,3.77,0,0,1,3.9-3.62h0a3.76,3.76,0,0,1,3.9,3.62v13.8a4.27,4.27,0,0,1-4.42,4.11H794.82v-7.24h13.12A.23.23,0,0,0,808.18,700Z" transform="translate(-332.8 -244)"/><path class="cls-60" d="M782.53,683.12V672.67a3.76,3.76,0,0,0-3.9-3.62h0a3.77,3.77,0,0,0-3.9,3.62v13.81a4.27,4.27,0,0,0,4.42,4.1h16.74v-7.24H782.77A.23.23,0,0,1,782.53,683.12Z" transform="translate(-332.8 -244)"/><path class="cls-61" d="M808.18,700V689.56a3.77,3.77,0,0,1,3.9-3.62h0a3.76,3.76,0,0,1,3.9,3.62v13.8a4.27,4.27,0,0,1-4.42,4.11H794.82v-7.24h13.12A.23.23,0,0,0,808.18,700Z" transform="translate(-332.8 -244)"/><path class="cls-62" d="M797.06,658.6h0a6.51,6.51,0,0,1,6.74,6.26V719a6.51,6.51,0,0,1-6.74,6.26h0a6.52,6.52,0,0,1-6.75-6.26V664.86A6.52,6.52,0,0,1,797.06,658.6Z" transform="translate(-332.8 -244)"/><path class="cls-63" d="M797.06,658.6h0a6.51,6.51,0,0,1,6.74,6.26V719a6.51,6.51,0,0,1-6.74,6.26h0a6.52,6.52,0,0,1-6.75-6.26V664.86A6.52,6.52,0,0,1,797.06,658.6Z" transform="translate(-332.8 -244)"/><polygon class="cls-20" points="479.29 494.99 450.01 494.99 448.52 470.59 480.78 470.59 479.29 494.99"/><rect class="cls-20" x="445.83" y="466.75" width="37.64" height="8.42"/><rect class="cls-64" x="445.83" y="466.75" width="37.64" height="8.42"/><rect class="cls-20" x="445.83" y="466.75" width="37.64" height="8.42"/><rect class="cls-65" x="445.83" y="466.75" width="37.64" height="8.42"/><rect class="cls-20" x="83.56" y="494.99" width="565.08" height="9.14"/><rect class="cls-66" x="83.56" y="494.99" width="565.08" height="9.14"/></g></g></svg>