<svg id="Layer_1" data-name="Layer 1" xmlns="http://www.w3.org/2000/svg" viewBox="0 0 1050.32 867"><defs><style>.cls-1,.cls-10,.cls-25,.cls-29,.cls-31,.cls-8{fill:#fff;}.cls-1,.cls-2{stroke:#e1e1e1;}.cls-1,.cls-16,.cls-19,.cls-2,.cls-24,.cls-28,.cls-29,.cls-30,.cls-8{stroke-miterlimit:10;}.cls-19,.cls-2,.cls-24,.cls-28,.cls-30{fill:none;}.cls-3,.cls-7{fill:#e1e1e1;}.cls-4{fill:#f0f0f0;}.cls-5{fill:#f5f5f5;}.cls-11,.cls-12,.cls-6{fill:#e7e7e7;}.cls-7{font-size:49.09px;}.cls-10,.cls-11,.cls-12,.cls-14,.cls-18,.cls-20,.cls-22,.cls-23,.cls-7{font-family:CourierPrimeCode-Regular, CourierPrimeCode Regular;}.cls-8{stroke:#ebebeb;}.cls-9{fill:#ebebeb;}.cls-10{font-size:43.32px;}.cls-11{font-size:51.81px;}.cls-12{font-size:40.68px;}.cls-13{fill:#455a64;}.cls-14{font-size:32.98px;}.cls-14,.cls-15,.cls-16,.cls-22,.cls-23{fill:#fafafa;}.cls-16,.cls-19{stroke:#f181a9;}.cls-17,.cls-18,.cls-20{fill:#f181a9;}.cls-18{font-size:49.55px;}.cls-20{font-size:40.74px;}.cls-21{opacity:0.2;}.cls-22{font-size:78.26px;}.cls-23{font-size:64.78px;}.cls-24,.cls-29{stroke:#1a2e35;}.cls-26,.cls-31{opacity:0.3;}.cls-27{fill:#1a2e35;}.cls-28{stroke:#000;stroke-width:2px;}.cls-30{stroke:#455a64;}.cls-32{opacity:0.6;}</style></defs><title>home</title><rect class="cls-1" x="75.34" y="118.1" width="717.28" height="410.12"/><line class="cls-2" x1="75.34" y1="171.24" x2="792.62" y2="171.24"/><path class="cls-3" d="M909.8,302.36c0,7-6.08,12.71-13.59,12.71s-13.58-5.69-13.58-12.71,6.08-12.71,13.58-12.71S909.8,295.34,909.8,302.36Z" transform="translate(-783.78 -156)"/><path class="cls-4" d="M965.29,302.36c0,7-6.08,12.71-13.59,12.71s-13.58-5.69-13.58-12.71,6.08-12.71,13.58-12.71S965.29,295.34,965.29,302.36Z" transform="translate(-783.78 -156)"/><path class="cls-5" d="M1020.78,302.36c0,7-6.08,12.71-13.59,12.71s-13.58-5.69-13.58-12.71,6.08-12.71,13.58-12.71S1020.78,295.34,1020.78,302.36Z" transform="translate(-783.78 -156)"/><rect class="cls-6" x="116.64" y="273.92" width="38.23" height="9.86"/><rect class="cls-6" x="182.73" y="273.92" width="259.59" height="9.86"/><rect class="cls-6" x="465.81" y="273.92" width="72.61" height="9.86"/><rect class="cls-6" x="631.9" y="405.88" width="72.62" height="9.86"/><rect class="cls-6" x="554.21" y="273.92" width="125.53" height="9.86"/><rect class="cls-6" x="154.87" y="300.31" width="38.23" height="9.86"/><rect class="cls-6" x="220" y="300.31" width="168.5" height="9.86"/><rect class="cls-6" x="446.15" y="405.88" width="168.5" height="9.86"/><rect class="cls-6" x="182.73" y="379.49" width="155.59" height="9.86"/><rect class="cls-6" x="220" y="326.7" width="73.55" height="9.86"/><rect class="cls-6" x="514.37" y="353.09" width="73.55" height="9.86"/><rect class="cls-6" x="314.95" y="326.7" width="248.3" height="9.86"/><rect class="cls-6" x="182.73" y="405.88" width="248.3" height="9.86"/><rect class="cls-6" x="546.12" y="300.31" width="199.21" height="9.86"/><rect class="cls-6" x="406.57" y="300.31" width="123.76" height="9.86"/><rect class="cls-6" x="577.72" y="326.7" width="123.76" height="9.86"/><rect class="cls-6" x="154.87" y="326.7" width="38.23" height="9.86"/><rect class="cls-6" x="116.64" y="353.09" width="38.23" height="9.86"/><rect class="cls-6" x="182.73" y="353.09" width="106.65" height="9.86"/><rect class="cls-6" x="220" y="432.27" width="106.65" height="9.86"/><rect class="cls-6" x="462.36" y="458.66" width="171.77" height="9.86"/><rect class="cls-6" x="344.99" y="432.27" width="166.93" height="9.86"/><rect class="cls-6" x="305.03" y="458.66" width="137.58" height="9.86"/><rect class="cls-6" x="531.52" y="432.27" width="213.8" height="9.86"/><rect class="cls-6" x="220" y="458.66" width="65.42" height="9.86"/><rect class="cls-6" x="353.88" y="379.49" width="184.55" height="9.86"/><rect class="cls-6" x="554.21" y="379.49" width="155.37" height="9.86"/><rect class="cls-6" x="312.35" y="353.09" width="184.25" height="9.86"/><rect class="cls-6" x="116.64" y="379.49" width="38.23" height="9.86"/><rect class="cls-6" x="116.64" y="405.88" width="38.23" height="9.86"/><rect class="cls-6" x="154.87" y="432.27" width="38.23" height="9.86"/><rect class="cls-6" x="154.87" y="458.66" width="38.23" height="9.86"/><text class="cls-7" transform="translate(114.91 253.79) scale(1.07 1)">&lt;/&gt;</text><path class="cls-8" d="M810.11,642.22h83.75c10.7,0,19.37,8.12,19.37,18.12v78.2l-19.69-16.92H810.11c-10.7,0-19.37-8.11-19.37-18.12V660.34C790.74,650.34,799.41,642.22,810.11,642.22Z" transform="translate(-783.78 -156)"/><path class="cls-9" d="M871.15,683.36a8.44,8.44,0,1,0,8.42-7.88A8.16,8.16,0,0,0,871.15,683.36Z" transform="translate(-783.78 -156)"/><ellipse class="cls-9" cx="66.49" cy="527.36" rx="8.42" ry="7.88"/><ellipse class="cls-9" cx="37.18" cy="527.36" rx="8.42" ry="7.88"/><path class="cls-4" d="M1684.33,213.06c0,9.23-7.63,16.78-17.32,17.45v.05H1561.07c-12.14,0-22-9.21-22-20.56,0-10.71,8.75-19.52,19.93-20.48.63-18.61,17-33.52,37-33.52,16,0,29.58,9.45,34.78,22.69a22.92,22.92,0,0,1,9.83-2.18c11.69,0,21.25,8.53,21.94,19.29a20.23,20.23,0,0,1,3-.23C1676,195.57,1684.33,203.4,1684.33,213.06Z" transform="translate(-783.78 -156)"/><rect class="cls-4" x="857.97" y="441.87" width="124.45" height="80.11" rx="7.03"/><text class="cls-10" transform="translate(878.48 492.74) scale(1.07 1)">&lt;/&gt;</text><text class="cls-11" transform="translate(809.36 396.39) scale(1.07 1)">{}</text><text class="cls-12" transform="translate(101.36 37.28) scale(1.07 1)">{}</text><rect class="cls-13" x="235.22" y="29.96" width="293.16" height="209.31" rx="8.31"/><text class="cls-14" transform="translate(430.85 85.25) scale(1.07 1)">&lt;/&gt;</text><path class="cls-15" d="M1107.63,233.37h78a.75.75,0,0,0,0-1.5h-78a.75.75,0,0,0,0,1.5Z" transform="translate(-783.78 -156)"/><path class="cls-15" d="M1046.19,261.94H1263c3,0,5.9.06,8.85,0h.37a.75.75,0,0,0,0-1.5H1055.4c-3,0-5.9-.06-8.84,0h-.37a.75.75,0,0,0,0,1.5Z" transform="translate(-783.78 -156)"/><path class="cls-15" d="M1246.58,295.58h25.68a.75.75,0,0,0,0-1.5h-25.68a.75.75,0,0,0,0,1.5Z" transform="translate(-783.78 -156)"/><path class="cls-15" d="M1110.38,295.58H1214.2c1.39,0,2.83.11,4.21,0h.19a.75.75,0,0,0,0-1.5H1114.79c-1.39,0-2.83-.11-4.21,0h-.2a.75.75,0,0,0,0,1.5Z" transform="translate(-783.78 -156)"/><path class="cls-15" d="M1046.19,323.43H1263c3,0,5.9.06,8.85,0h.37a.75.75,0,0,0,0-1.5H1055.4c-3,0-5.9-.06-8.84,0h-.37a.75.75,0,0,0,0,1.5Z" transform="translate(-783.78 -156)"/><path class="cls-15" d="M1206.22,354.18h66a.75.75,0,0,0,0-1.5h-66a.75.75,0,0,0,0,1.5Z" transform="translate(-783.78 -156)"/><path class="cls-15" d="M1110.38,354.18h75.29a.75.75,0,0,0,0-1.5h-75.29a.75.75,0,0,0,0,1.5Z" transform="translate(-783.78 -156)"/><path class="cls-16" d="M1315.27,515.85h-171v90h171Z" transform="translate(-783.78 -156)"/><path class="cls-17" d="M1160.49,524.07a4.37,4.37,0,1,1-4.36-4.08A4.23,4.23,0,0,1,1160.49,524.07Z" transform="translate(-783.78 -156)"/><path class="cls-17" d="M1178.3,524.07a4.37,4.37,0,1,1-4.36-4.08A4.23,4.23,0,0,1,1178.3,524.07Z" transform="translate(-783.78 -156)"/><path class="cls-17" d="M1196.11,524.07a4.37,4.37,0,1,1-4.36-4.08A4.23,4.23,0,0,1,1196.11,524.07Z" transform="translate(-783.78 -156)"/><text class="cls-18" transform="translate(384.58 422.17) scale(1.07 1)">HTML</text><line class="cls-19" x1="360.44" y1="376.05" x2="531.48" y2="376.05"/><path class="cls-16" d="M1046.65,219.42H929.33v74h117.32Z" transform="translate(-783.78 -156)"/><ellipse class="cls-17" cx="155.33" cy="70.19" rx="3.59" ry="3.35"/><path class="cls-17" d="M957.35,226.19a3.59,3.59,0,1,1-3.59-3.36A3.48,3.48,0,0,1,957.35,226.19Z" transform="translate(-783.78 -156)"/><path class="cls-17" d="M972,226.19a3.59,3.59,0,1,1-3.58-3.36A3.47,3.47,0,0,1,972,226.19Z" transform="translate(-783.78 -156)"/><text class="cls-20" transform="translate(165.39 118.32) scale(1.07 1)">PHP</text><line class="cls-19" x1="145.54" y1="76.75" x2="262.87" y2="76.75"/><path class="cls-17" d="M1826.69,328.26h-226.9v134h226.9" transform="translate(-783.78 -156)"/><rect class="cls-17" x="816.01" y="172.26" width="226.9" height="25.6"/><g class="cls-21"><rect x="816.01" y="172.26" width="226.9" height="25.6"/></g><path class="cls-3" d="M1625.49,341.24a6.91,6.91,0,1,1-6.89-6.44A6.68,6.68,0,0,1,1625.49,341.24Z" transform="translate(-783.78 -156)"/><path class="cls-4" d="M1653.62,341.24a6.91,6.91,0,1,1-6.89-6.44A6.68,6.68,0,0,1,1653.62,341.24Z" transform="translate(-783.78 -156)"/><path class="cls-15" d="M1681.75,341.24a6.91,6.91,0,1,1-6.89-6.44A6.68,6.68,0,0,1,1681.75,341.24Z" transform="translate(-783.78 -156)"/><text class="cls-22" transform="translate(854.14 270.69) scale(1.07 1)">C++</text><path class="cls-17" d="M1005.13,419.85H817.29V530.8h187.84" transform="translate(-783.78 -156)"/><rect class="cls-17" x="33.51" y="263.85" width="187.83" height="21.19"/><g class="cls-21"><rect x="33.51" y="263.85" width="187.83" height="21.19"/></g><path class="cls-3" d="M838.56,430.6a5.71,5.71,0,1,1-5.7-5.33A5.52,5.52,0,0,1,838.56,430.6Z" transform="translate(-783.78 -156)"/><path class="cls-4" d="M861.85,430.6a5.71,5.71,0,1,1-5.7-5.33A5.52,5.52,0,0,1,861.85,430.6Z" transform="translate(-783.78 -156)"/><path class="cls-15" d="M885.14,430.6a5.72,5.72,0,1,1-5.7-5.33A5.52,5.52,0,0,1,885.14,430.6Z" transform="translate(-783.78 -156)"/><text class="cls-23" transform="translate(65.07 345.34) scale(1.07 1)">CSS</text><line class="cls-24" y1="791.28" x2="1050.22" y2="791.28"/><path class="cls-25" d="M1185,637.56c-4.74-7.14-7.9-20.92-6.32-34.21s2.11-33.47-15.79-34.45-23.95,32.73-25,39.87-32.89,11.57-58.42,4.13-73.16-15.95-94.14-11-13.2,22-13.2,22l0,0c-14.47,9.52,1.42,21.57,1.42,21.57-14.73,12.47,1.64,25.64,12.05,26.93h0a9.19,9.19,0,0,0-.12,3.92c2.81,14.44,66.67,9.19,103.16,24.28s61.75,78.76,61.75,78.76l76.15-85.49S1189.7,644.7,1185,637.56Z" transform="translate(-783.78 -156)"/><path class="cls-24" d="M1061.28,639s-73-5.91-87.72,6.56,1.64,25.64,12.05,26.93" transform="translate(-783.78 -156)"/><path class="cls-24" d="M1061.28,623.86s-55.09-13.78-82.45-3.28c-25.4,9.75-5.27,24.94-5.27,24.94" transform="translate(-783.78 -156)"/><path class="cls-24" d="M972.1,623.93s-7.78-17.13,13.2-22,68.61,3.59,94.14,11,57.37,3,58.42-4.13,7.11-40.86,25-39.87,17.37,21.16,15.79,34.45,1.58,27.07,6.32,34.21,41.58,56.36,41.58,56.36l-76.15,85.49s-25.26-63.66-61.75-78.76-100.35-9.84-103.16-24.28,25.26-21,68.07-16.41" transform="translate(-783.78 -156)"/><path class="cls-17" d="M1120.18,749.26l114.74-61.86s99.4,167.91,227.59,211.19L1309.82,952.5l-122.53-7.35S1138.56,849,1120.18,749.26Z" transform="translate(-783.78 -156)"/><g class="cls-26"><path class="cls-25" d="M1120.18,749.26l114.74-61.86s99.4,167.91,227.59,211.19L1309.82,952.5l-122.53-7.35S1138.56,849,1120.18,749.26Z" transform="translate(-783.78 -156)"/></g><path class="cls-15" d="M1461.42,898.21l-2.38-.84v2.45l2.38-.84Z" transform="translate(-783.78 -156)"/><path class="cls-15" d="M1411.63,882.19v34.37l2.38-.84V882.19h11.07c-1.36-.73-2.73-1.46-4.09-2.22h-7v-4l-2.38-1.42V880h-45V842.22l-2.37-2V880h-45V835.79H1359l-2.54-2.22h-37.29V797.35c-.8-.84-1.59-1.69-2.38-2.53v38.75h-45V789.38h40l-2-2.22h-38V743h1.5c-1.32-1.74-2.61-3.44-3.87-5.13v2.91h-45V696.58h16.29l-1.41-2.22h-14.88V693.1l-6.45,3.48H1222v44.18h-45v-22.1l-2.38,1.28v20.82h-38.62l-4.12,2.22h42.74v44.18h-45V744.22l-2.37,1.28v36q1.15,4.71,2.37,9.36v-1.52h45v44.19h-32.43c.24.74.48,1.48.73,2.22h31.7V880H1158.8q.43,1.13.87,2.22h14.89v35.67q1.23,2.79,2.38,5.32v-41h45v44.19h-43.6l1,2.22H1222v18.63l2.37.14V928.6h45v21.48l2.37.14V928.6h45V950l2.38-.84V928.6h45v4.7l2.37-.84V928.6h10.94l6.29-2.22h-17.23V882.19ZM1222,880h-45V835.79h45Zm0-46.4h-45V789.38h45Zm0-46.41h-45V743h45Zm47.41,139.22h-45V882.19h45Zm0-46.41h-45V835.79h45Zm0-46.4h-45V789.38h45Zm0-46.41h-45V743h45Zm47.41,139.22h-45V882.19h45Zm0-46.41h-45V835.79h45Zm47.42,46.41h-45V882.19h45Z" transform="translate(-783.78 -156)"/><path class="cls-24" d="M1120.18,749.26l114.74-61.86s99.4,167.91,227.59,211.19L1309.82,952.5l-122.53-7.35S1138.56,849,1120.18,749.26Z" transform="translate(-783.78 -156)"/><line class="cls-24" x1="346.53" y1="636.28" x2="477.15" y2="571.82"/><path class="cls-27" d="M1239.52,717.85c0,5-4.38,9.15-9.78,9.15s-9.77-4.1-9.77-9.15,4.37-9.14,9.77-9.14S1239.52,712.8,1239.52,717.85Z" transform="translate(-783.78 -156)"/><path class="cls-17" d="M1605.71,785.66s30.61,75.49-81.72,102.21-244.56,22-244.56,22-13.43.18-12.63-32.75-.79-98,44.45-169.85,73.38-98.17,96.31-106.37c8-2.85,63.35-7.17,93.94,9.4C1558.84,641.39,1603.11,714.26,1605.71,785.66Z" transform="translate(-783.78 -156)"/><g class="cls-26"><path class="cls-25" d="M1605.71,785.66s30.61,75.49-81.72,102.21-244.56,22-244.56,22-13.43.18-12.63-32.75-.79-98,44.45-169.85,73.38-98.17,96.31-106.37c8-2.85,63.35-7.17,93.94,9.4C1558.84,641.39,1603.11,714.26,1605.71,785.66Z" transform="translate(-783.78 -156)"/></g><path class="cls-15" d="M1570.62,827h36.28c.22-.74.42-1.48.61-2.22h-36.89V780.58h34.81c0-.74-.08-1.48-.14-2.22h-34.67V734.17h26.26c-.22-.74-.44-1.48-.67-2.22h-25.59V687.77H1577c-.42-.75-.86-1.48-1.29-2.22h-5.06v-8.36c-.77-1.21-1.57-2.4-2.37-3.6v12h-45V641.36h19l-2.25-2.22h-16.7V624.56c-.79-.61-1.58-1.2-2.37-1.79v16.37h-45V601.65l-2.38-.46v37.95h-45V598.45l-2.37.12v40.57h-45V617.47q-1.17,1-2.37,2.1v19.57h-18.77l-1.88,2.22h20.65v44.19h-45v-12l-2.37,3.41v8.59h-5.82l-1.48,2.22h7.3V732h-33.8c-.37.74-.76,1.48-1.12,2.22h34.92v44.19h-45v-20.9c-.82,2.17-1.62,4.32-2.37,6.46v14.44h-4.67c-.22.74-.42,1.47-.63,2.22h5.3v44.18h-14.1l-.27,2.22h14.37v44.18h-16.84c0,.76,0,1.5,0,2.22h16.89V910l2.37.05V873.38h45V909.9l2.37-.06V873.38h45v34.51l2.37-.15V873.38h45V904l2.37-.25V873.38h45v24.38l2.38-.37v-24h45V888.6l2.37-.55V873.38h41.44c2.08-1.07,4.08-2.17,6-3.28Zm-239.44,44.18h-45V827h45Zm0-46.4h-45V780.58h45Zm47.42,46.4h-45V827h45Zm0-46.4h-45V780.58h45Zm0-46.4h-45V734.17h45Zm0-46.41h-45V687.77h45ZM1426,871.16h-45V827h45Zm0-46.4h-45V780.58h45Zm0-46.4h-45V734.17h45Zm0-46.41h-45V687.77h45Zm0-46.4h-45V641.36h45Zm47.41,185.61h-45V827h45Zm0-46.4h-45V780.58h45Zm0-46.4h-45V734.17h45Zm0-46.41h-45V687.77h45Zm0-46.4h-45V641.36h45Zm47.42,185.61h-45V827h45Zm0-46.4h-45V780.58h45Zm0-46.4h-45V734.17h45Zm0-46.41h-45V687.77h45Zm0-46.4h-45V641.36h45Zm47.41,185.61h-45V827h45Zm0-46.4h-45V780.58h45Zm0-46.4h-45V734.17h45Zm0-46.41h-45V687.77h45Z" transform="translate(-783.78 -156)"/><path class="cls-24" d="M1399.33,601S1244.8,723.51,1269.47,904.87" transform="translate(-783.78 -156)"/><path class="cls-25" d="M1505.54,864.3l8.81,114.9L1368,965.53s-14.14-4.09-25.27,6.11-10.92,15.68-11.8,19.17-4.15,16.46-10.63,23.28-11.88,6.56-16.54,2.13l-4.66-4.42s-1.83-.89-4.32,1.39-8.93,5-12.48.4-3.68-4-3.68-4-1.12-1.93-3.14-.06-10.9,5-15.49-.08a49.61,49.61,0,0,1-6.43-8.55s-1.36-.44-4.1.57-14,3.55-20.22-8.94-2.45-31.41,0-43.83,13.81-39.35,24.12-50.24,29.78-23.5,50.15-26.66,77-5.29,100.94-5.83S1505.54,864.3,1505.54,864.3Z" transform="translate(-783.78 -156)"/><path class="cls-24" d="M1320.35,931.73s-21.45,35.38-25.34,54.82,7.85,33.36,14.64,32.94,16.37-7,20.58-25.83,17.9-28.52,27.94-28.72,163.76,15,163.76,15" transform="translate(-783.78 -156)"/><path class="cls-24" d="M1293.53,927.06s-17.69,37.9-19.41,57.73,7.94,30.76,12.59,31.39,11.61-5.72,11.61-5.72" transform="translate(-783.78 -156)"/><path class="cls-24" d="M1270,913.07s-19.28,35.77-20.52,56.45,3.11,35.34,11.57,40.66,16.94-2.5,16.94-2.5" transform="translate(-783.78 -156)"/><path class="cls-24" d="M1509.5,864.26s-146.14,1-193.46,5.73-67.63,28.91-78.36,53.54-14.32,57-8,68.2c10.76,19.15,23,7.66,23,7.66" transform="translate(-783.78 -156)"/><path class="cls-17" d="M1521.05,708.71s82.23,67.54,70.75,111.24-199.22,39.48-199.22,39.48V983.69s82.35-1.72,152.92,7c82.53,10.19,212.46-18.46,225.57-109.9S1704,623.79,1487,596.43Z" transform="translate(-783.78 -156)"/><g class="cls-26"><path class="cls-25" d="M1521.05,708.71s82.23,67.54,70.75,111.24-199.22,39.48-199.22,39.48V983.69s82.35-1.72,152.92,7c82.53,10.19,212.46-18.46,225.57-109.9S1704,623.79,1487,596.43Z" transform="translate(-783.78 -156)"/></g><path class="cls-15" d="M1760.28,871.16V827h8.84c-.14-.74-.29-1.48-.44-2.22h-8.4V794.29c-.75-2.15-1.55-4.31-2.37-6.47v36.94h-45V780.58H1755l-.94-2.22h-41.2V734.17h17l-1.51-2.22h-15.45V711.6c-.79-1-1.57-1.89-2.38-2.83V732h-45V687.77h25.22c-.77-.75-1.56-1.48-2.34-2.22h-22.88V666.09l-2.37-1.81v21.27h-45V641.36h10c-1.31-.74-2.63-1.49-4-2.22h-6v-3.2l-2.38-1.21v4.41h-45V615.6l-2.37-.79v24.33h-45V602.53l-2.37-.49v37.1H1500l.67,2.22h20.21v44.19H1514l.67,2.22h6.14V708l.21.72s.78.64,2.16,1.82V687.77h45V732H1546l2.16,2.22h20v23c.8,1,1.59,2.07,2.37,3.11V734.17h45v44.19h-33.12c.42.73.82,1.48,1.22,2.22h31.9v44.18h-26a21.63,21.63,0,0,1-1.55,2.22h27.52v44.18h-45v-32c-.77.35-1.56.69-2.37,1v31h-45V851.73l-2.37.37v19.06h-45V857.07l-2.38.18v13.91h-45V859.29l-2.37.05v11.82h-33.43v2.22H1426v44.19h-33.43v2.22H1426V964h-33.43v2.22H1426v17.45l2.37,0V966.19h45V985l2.38.11V966.19h45v21.88l2.37.22v-22.1h45v26.25l2.37.07V966.19h45v24.24l2.38-.29V966.19h45V981l2.37-.71V966.19h36.16q2.17-1.08,4.32-2.22h-40.48V919.79h45v41.68c.8-.45,1.59-.91,2.38-1.37V919.79h43.69q2-3.09,3.72-6.32V873.38h11.61q.1-1.1.18-2.22Zm-192-185.61h-45V641.36h45ZM1473.42,964h-45V919.79h45Zm0-46.4h-45V873.38h45Zm47.42,46.4h-45V919.79h45Zm0-46.4h-45V873.38h45Zm47.41,46.4h-45V919.79h45Zm0-46.4h-45V873.38h45Zm47.41,46.4h-45V919.79h45Zm0-46.4h-45V873.38h45Zm0-185.62h-45V687.77h45Zm0-46.4h-45V641.36h45ZM1663.08,964h-45V919.79h45Zm0-46.4h-45V873.38h45Zm0-46.41h-45V827h45Zm0-46.4h-45V780.58h45Zm0-46.4h-45V734.17h45Zm0-46.41h-45V687.77h45Zm47.41,185.62h-45V873.38h45Zm0-46.41h-45V827h45Zm0-46.4h-45V780.58h45Zm0-46.4h-45V734.17h45Zm47.42,139.21h-45V873.38h45Zm0-46.41h-45V827h45Z" transform="translate(-783.78 -156)"/><path class="cls-24" d="M1521.05,708.71s82.23,67.54,70.75,111.24-199.22,39.48-199.22,39.48V983.69s82.35-1.72,152.92,7c82.53,10.19,212.46-18.46,225.57-109.9S1704,623.79,1487,596.43" transform="translate(-783.78 -156)"/><path class="cls-27" d="M1427.14,960.12c0,5-4.37,9.13-9.77,9.13s-9.76-4.09-9.76-9.13,4.37-9.13,9.76-9.13S1427.14,955.08,1427.14,960.12Z" transform="translate(-783.78 -156)"/><line class="cls-24" x1="656.75" y1="702.95" x2="656.75" y2="827.68"/><path class="cls-28" d="M1515.44,494.87c0,14.57-12.73,26.38-28.44,26.38s-28.43-11.81-28.43-26.38S1471.3,468.5,1487,468.5,1515.44,480.31,1515.44,494.87Z" transform="translate(-783.78 -156)"/><path class="cls-29" d="M1391.56,413h35.72c23.74,0,43.17,20.68,43.17,46v51.78c0,1.46-.08,2.9-.21,4.32a19.15,19.15,0,0,1,.61,4.75v64.79c0,11.44-10,20.8-22.23,20.8h-14.17c-12.23,0-22.24-9.36-22.24-20.8V556.75h-20.65c-23.74,0-43.17-20.69-43.17-46V459C1348.39,433.71,1367.82,413,1391.56,413Z" transform="translate(-783.78 -156)"/><path class="cls-27" d="M1461.09,494l-6.59-40.56s-120,14.06-158.88-40.44,2-76.09,21.76-73,42.9,29.59,42.9,29.59-18.41-23.43,0-27.13,38.74,14.18,49.34,32.68c0,0,79.08-6.9,105.82,37.86s5.07,76.5-43.83,122.74l-3.27-25.86Z" transform="translate(-783.78 -156)"/><path class="cls-17" d="M1450.32,502c0,10.59-9.17,19.18-20.5,19.18s-20.5-8.59-20.5-19.18,9.18-19.18,20.5-19.18S1450.32,491.4,1450.32,502Z" transform="translate(-783.78 -156)"/><path class="cls-17" d="M1353.39,486.65a17.16,17.16,0,0,0-3.62.41V507c0,3-.34,5.87.31,8.67a25.66,25.66,0,0,0,3.31.23c8.62,0,15.61-6.54,15.61-14.6S1362,486.65,1353.39,486.65Z" transform="translate(-783.78 -156)"/><path class="cls-27" d="M1413.31,475.21a7.31,7.31,0,1,1-7.29-6.82A7.07,7.07,0,0,1,1413.31,475.21Z" transform="translate(-783.78 -156)"/><path class="cls-27" d="M1365.57,474.21a6.24,6.24,0,1,1-6.23-5.82A6,6,0,0,1,1365.57,474.21Z" transform="translate(-783.78 -156)"/><path class="cls-25" d="M1372.53,502.12s3.66,10,11.41,10.67,13.82-7.34,14.24-13.61Z" transform="translate(-783.78 -156)"/><path class="cls-27" d="M1372.21,502.21a19.53,19.53,0,0,0,6.51,8.91c5.27,3.8,11.92,1.76,15.88-2.91a16.19,16.19,0,0,0,3.92-9,.34.34,0,0,0-.34-.34l-22.49,2.58-3.16.36c-.42.05-.43.72,0,.67l22.49-2.58,3.16-.36-.33-.33c-.46,5.7-4.84,11.59-10.49,13s-10-2.21-12.74-6.66a20.16,20.16,0,0,1-1.77-3.5C1372.7,501.63,1372.06,501.8,1372.21,502.21Z" transform="translate(-783.78 -156)"/><path class="cls-30" d="M1442.94,471.21c0,14.7-11.4,26.62-25.46,26.62S1392,485.91,1392,471.21s11.4-26.61,25.46-26.61S1442.94,456.52,1442.94,471.21Z" transform="translate(-783.78 -156)"/><path class="cls-30" d="M1375,467.88c0,13.14-9.38,23.8-21,23.8s-21-10.66-21-23.8,9.38-23.8,21-23.8S1375,454.73,1375,467.88Z" transform="translate(-783.78 -156)"/><polygon class="cls-17" points="598.62 312.47 598.62 335.59 585.66 328.2 598.62 312.47"/><path class="cls-30" d="M1374.33,475s10.84-3.84,18.27,1.91" transform="translate(-783.78 -156)"/><line class="cls-30" x1="659.12" y1="316.19" x2="693.66" y2="322.94"/><path class="cls-25" d="M1515.44,494.87c0,14.57-12.73,26.38-28.44,26.38s-28.43-11.81-28.43-26.38S1471.3,468.5,1487,468.5,1515.44,480.31,1515.44,494.87Z" transform="translate(-783.78 -156)"/><path class="cls-27" d="M1472,498.36c-.4-5.77,2.47-12,7.91-14.34a20.3,20.3,0,0,1,10.1-1.17c.52,0,.52-.78,0-.83-5.37-.52-11.28.3-15,4.56a16.53,16.53,0,0,0-3.75,9.47,14.83,14.83,0,0,0-.07,2.31c0,.53.86.53.83,0Z" transform="translate(-783.78 -156)"/><rect class="cls-17" x="601.82" y="431.62" width="115.9" height="29.02" rx="2.83"/><rect class="cls-31" x="601.82" y="431.62" width="115.9" height="29.02" rx="2.83"/><path class="cls-27" d="M1409.62,601.52a5.46,5.46,0,1,1-5.45-5.09A5.28,5.28,0,0,1,1409.62,601.52Z" transform="translate(-783.78 -156)"/><path class="cls-15" d="M1475.8,616.64V595h25.7v-1.05a6.45,6.45,0,0,0-.12-1.17H1475.8v-5.12h-2.38v5.12h-45v-5.12H1426v5.12h-40.28a6.45,6.45,0,0,0-.12,1.17V595H1426v21.68h2.37V595h45v21.68Z" transform="translate(-783.78 -156)"/><rect class="cls-24" x="601.82" y="431.62" width="115.9" height="29.02" rx="2.83"/><path class="cls-29" d="M1735.43,915.33c-24,0-43.56,18.24-43.56,40.74s19.51,40.74,43.56,40.74S1779,978.57,1779,956.07,1759.49,915.33,1735.43,915.33Zm0,66.48c-15.2,0-27.52-11.52-27.52-25.74s12.32-25.75,27.52-25.75S1763,941.85,1763,956.07,1750.64,981.81,1735.43,981.81Z" transform="translate(-783.78 -156)"/><rect class="cls-29" x="833.43" y="736.12" width="120.06" height="129.33" rx="5.87"/><rect class="cls-17" x="863.79" y="800.07" width="59.33" height="37.71" rx="8.05"/><rect class="cls-17" x="866.41" y="824.15" width="13.92" height="23.3" rx="2.49"/><rect class="cls-17" x="906.49" y="824.87" width="13.92" height="23.3" rx="2.49"/><path class="cls-17" d="M1661.7,966.44a166.65,166.65,0,0,1-4.21-24.55c-1.26-15.23,6.81-22.36,23.81-20.14,9,1.17,12.85-11.66,3.79-12.85-16.93-2.21-37.1,1.58-41.44,19.64-3.12,13,1.3,28.72,4.32,41.44,2,8.37,15.72,4.83,13.73-3.54Z" transform="translate(-783.78 -156)"/><path class="cls-17" d="M1694.67,967.79c.55-.64,3.42.29,4.26.54,5.67,1.72,27.66,6.42,26.1,24.18-1,11.83-8,16.45-14.06,18.34a2,2,0,0,1-2.12-3.34,22,22,0,0,0,5.55-7c3.21-6.94-3.44-12.42-21.3-20.38-1.21-.54-.37-8.12.47-9.1Z" transform="translate(-783.78 -156)"/><path class="cls-27" d="M1680.33,912.36a1.55,1.55,0,1,1-1.54-1.45A1.5,1.5,0,0,1,1680.33,912.36Z" transform="translate(-783.78 -156)"/><path class="cls-27" d="M1678.72,917.59a3.62,3.62,0,0,0,.68,1.23,6.23,6.23,0,0,0,2.93,1.95,10.75,10.75,0,0,0,3.19.51.07.07,0,1,0,0-.15c-2.42-.06-5.3-.81-6.48-3.16a2,2,0,0,1-.18-.42.07.07,0,1,0-.14,0Z" transform="translate(-783.78 -156)"/><path class="cls-17" d="M1674.56,964.54c0,1.29-1.82,2.35-4.07,2.35s-4.07-1.06-4.07-2.35,1.82-2.35,4.07-2.35S1674.56,963.24,1674.56,964.54Z" transform="translate(-783.78 -156)"/><path class="cls-17" d="M1681.91,968.92c0,.74-1.05,1.34-2.34,1.34s-2.33-.6-2.33-1.34,1-1.35,2.33-1.35S1681.91,968.17,1681.91,968.92Z" transform="translate(-783.78 -156)"/><path class="cls-17" d="M1689.39,961.34c0,1-2,1.81-4.52,1.81s-4.51-.81-4.51-1.81,2-1.81,4.51-1.81S1689.39,960.34,1689.39,961.34Z" transform="translate(-783.78 -156)"/><ellipse class="cls-17" cx="910.2" cy="810.38" rx="2.11" ry="1.18"/><g class="cls-32"><path class="cls-25" d="M1674.56,964.54c0,1.29-1.82,2.35-4.07,2.35s-4.07-1.06-4.07-2.35,1.82-2.35,4.07-2.35S1674.56,963.24,1674.56,964.54Z" transform="translate(-783.78 -156)"/><path class="cls-25" d="M1681.91,968.92c0,.74-1.05,1.34-2.34,1.34s-2.33-.6-2.33-1.34,1-1.35,2.33-1.35S1681.91,968.17,1681.91,968.92Z" transform="translate(-783.78 -156)"/><path class="cls-25" d="M1689.39,961.34c0,1-2,1.81-4.52,1.81s-4.51-.81-4.51-1.81,2-1.81,4.51-1.81S1689.39,960.34,1689.39,961.34Z" transform="translate(-783.78 -156)"/><ellipse class="cls-25" cx="910.2" cy="810.38" rx="2.11" ry="1.18"/></g><path class="cls-3" d="M1727,850.84c-.07,9.21-6.4,17.16-15,20.1a24.23,24.23,0,0,1-25.7-6.47,20.5,20.5,0,0,1-2-24.67c5.12-8,15.16-11.74,24.34-9.95,10.12,2,18.26,10.45,18.34,21a1.13,1.13,0,0,0,2.25,0c-.08-10.25-7.1-19-16.66-22.27-9.72-3.32-21.17-.61-28,7.16a22.81,22.81,0,0,0-2.13,27.42c5.67,8.66,16.39,12.73,26.46,10.91,11.24-2,20.24-11.62,20.33-23.22A1.13,1.13,0,0,0,1727,850.84Z" transform="translate(-783.78 -156)"/><path class="cls-3" d="M1831.86,772.32a50.4,50.4,0,0,1-11,31,59.58,59.58,0,0,1-28,19.28,65.92,65.92,0,0,1-36.67,1.22,60.61,60.61,0,0,1-29.58-17.43,50.84,50.84,0,0,1-13.42-29.94,49.87,49.87,0,0,1,8.41-31.88A58.12,58.12,0,0,1,1748,723.51a65.71,65.71,0,0,1,36.24-3.68,61.57,61.57,0,0,1,31.08,15.41,52.09,52.09,0,0,1,15.85,28.7,49,49,0,0,1,.72,8.38,1.13,1.13,0,0,0,2.25,0,52.73,52.73,0,0,0-11.33-32.22,61.67,61.67,0,0,0-29.16-20.19,68.07,68.07,0,0,0-38-1.27,62.68,62.68,0,0,0-30.68,18.13A53.36,53.36,0,0,0,1711,768a51.84,51.84,0,0,0,8.71,33.17,60.54,60.54,0,0,0,27.24,21.91,67.79,67.79,0,0,0,37.73,3.91A63.69,63.69,0,0,0,1817,810.88,54,54,0,0,0,1833.36,781a52.26,52.26,0,0,0,.75-8.65A1.13,1.13,0,0,0,1831.86,772.32Z" transform="translate(-783.78 -156)"/><path class="cls-27" d="M950.73,1022.26l251.52.43c26.11,0,39.61-18.9,30.15-42.32l-65.93-163.26c-9.46-23.42-38.29-42.44-64.4-42.49l-251.52-.43c-26.11,0-39.61,18.91-30.16,42.33l65.94,163.26C895.78,1003.2,924.62,1022.22,950.73,1022.26Z" transform="translate(-783.78 -156)"/><path class="cls-25" d="M988.69,885.5c2.95,10.37,14.32,18.79,25.4,18.81s17.68-8.37,14.73-18.74-14.32-18.79-25.4-18.81S985.74,875.13,988.69,885.5Z" transform="translate(-783.78 -156)"/><rect class="cls-27" x="1119.14" y="987.59" width="265.45" height="35.18" rx="2.54" transform="translate(1718.22 1856.51) rotate(-179.9)"/></svg>